<?xml version="1.0" encoding="UTF-8"?>
<svg xmlns="http://www.w3.org/2000/svg" xmlns:xlink="http://www.w3.org/1999/xlink" width="150px" height="150px" viewBox="0 0 744 744" version="1.1">
<g id="surface1">
<path style=" stroke:none;fill-rule:nonzero;fill:rgb(0%,0%,0%);fill-opacity:1;" d="M 672.875 395.855469 C 670.730469 422.59375 665.515625 448.335938 656.714844 473.320312 C 642.8125 512.761719 621.558594 547.738281 593.058594 578.347656 C 560.886719 612.902344 522.621094 638.335938 478.453125 654.855469 C 455.5625 663.417969 431.933594 669.015625 407.585938 671.589844 C 336.351562 679.113281 270.425781 663.804688 210.496094 624.636719 C 156.566406 589.386719 118.078125 541.257812 94.726562 481.144531 C 85.085938 456.328125 78.746094 430.636719 76.472656 404.140625 C 68.800781 314.554688 94.746094 236.015625 155.863281 169.867188 C 200.828125 121.199219 256.621094 91.511719 321.746094 79.53125 C 346.160156 75.039062 370.832031 73.699219 395.613281 75.613281 C 431.671875 78.398438 466.28125 87 499.191406 102.085938 C 541.984375 121.703125 578.046875 150.121094 607.535156 186.679688 C 636.703125 222.839844 656.371094 263.710938 666.4375 309.175781 C 671.726562 333.074219 673.953125 357.234375 673.617188 381.664062 C 673.554688 386.28125 673.144531 390.890625 672.875 395.855469 M 304.4375 588.519531 C 308.097656 586.746094 311.753906 584.972656 316.375 582.734375 C 311 582.121094 306.699219 580.738281 302.617188 583.792969 C 299.4375 586.171875 296.074219 588.316406 292.949219 590.765625 C 288.554688 594.210938 284.304688 597.839844 279.992188 601.390625 C 287.019531 599.507812 293.304688 596.417969 298.988281 591.484375 C 301.027344 591.210938 302.148438 589.34375 304.4375 588.519531 M 144.757812 479.257812 C 144.757812 479.257812 144.777344 479.285156 144.578125 478.808594 C 138.945312 471.246094 133.3125 463.6875 127.613281 456.042969 C 126.351562 457.375 127.445312 459.492188 125.457031 459.992188 C 123.664062 459.660156 122.992188 457.65625 120.914062 456.992188 C 124.152344 464.941406 128.867188 471.722656 132.453125 479.066406 C 136.480469 487.316406 143.65625 492.378906 150.199219 498.144531 C 150.558594 498.457031 151.09375 498.570312 151.855469 499.085938 C 152.269531 499.503906 152.6875 499.921875 153.4375 500.683594 C 158.171875 504.359375 163.863281 506.71875 168.207031 510.953125 C 165.757812 511.507812 164.429688 509.320312 161.285156 509.066406 C 165.125 511.390625 168.035156 513.292969 171.074219 514.964844 C 179.328125 519.5 188.140625 522.539062 197.140625 525.324219 C 204.273438 527.53125 211.109375 530.675781 218.558594 531.929688 C 219.347656 532.0625 220.597656 531.84375 221.042969 533.292969 C 218.207031 534.8125 215.632812 533.144531 213.058594 532.707031 C 210.464844 532.261719 207.957031 531.351562 205.410156 530.644531 C 218.773438 535.894531 232.769531 538.117188 246.925781 539.625 C 236.800781 531.304688 224.976562 526.800781 212.570312 523.75 C 203.113281 521.421875 193.417969 519.789062 184.976562 514.605469 C 170.644531 505.804688 157.144531 495.976562 147.203125 482.042969 C 146.484375 481.035156 145.566406 480.167969 144.757812 479.257812 M 132.914062 458.78125 C 144.050781 474.09375 154.425781 490.066406 170.035156 501.515625 C 178.28125 507.5625 186.300781 513.945312 196.109375 517.445312 C 204.613281 520.480469 213.644531 521.273438 222.300781 523.660156 C 222.398438 523.6875 222.597656 523.355469 222.972656 522.953125 C 218.089844 518.90625 213.023438 515.078125 208.394531 510.777344 C 202.179688 505.003906 195.222656 500.574219 187.449219 497.25 C 182.503906 495.136719 177.890625 492.371094 173.757812 488.863281 C 163.050781 479.765625 153.933594 469.167969 145.011719 458.382812 C 137.101562 448.820312 129.835938 438.804688 125.117188 427.25 C 121.105469 417.429688 118.480469 407.101562 114.945312 397.113281 C 111.417969 387.140625 109.054688 377.125 109.015625 366.453125 C 108.996094 361.445312 108.914062 356.265625 107.515625 351.292969 C 107.273438 353.546875 107.519531 355.820312 107.234375 358.027344 C 104.527344 378.988281 109.507812 398.644531 117.261719 417.839844 C 117.523438 418.484375 118.238281 418.933594 118.59375 419.558594 C 121.511719 424.65625 122.582031 430.199219 122.625 436.003906 C 120.59375 433.789062 121.105469 430.660156 119.550781 428.289062 C 120.113281 435.085938 120.40625 441.953125 125.410156 448.011719 C 127.863281 451.4375 130.316406 454.859375 132.914062 458.78125 M 332.496094 558.84375 C 329.109375 559.605469 326.835938 561.707031 326.25 565.066406 C 325.164062 571.285156 330.691406 572.332031 334.875 574.722656 C 331.039062 575.480469 326.5 573.597656 324.902344 570.539062 C 322.261719 565.492188 323.929688 561.269531 328.789062 557.398438 C 301.480469 558.484375 275.058594 561.890625 248.667969 556.734375 C 258.71875 565.160156 270.339844 569.878906 282.949219 574.792969 C 277.261719 566.820312 277.058594 563.550781 281.539062 561.566406 C 280.019531 567.214844 280.375 568.582031 284.0625 571.351562 C 280.5625 565.824219 280.8125 564.160156 285.320312 562.726562 C 285.613281 566.199219 287 569.160156 289.386719 571.699219 C 290.652344 573.042969 292.238281 574.429688 289.539062 576.3125 C 293.96875 577.539062 298.246094 578.316406 303.128906 578.742188 C 297.199219 571.8125 296.664062 569.503906 299.671875 565.359375 C 302.675781 561.21875 309.46875 559.488281 315.09375 561.6875 C 312.667969 562.964844 310.242188 562.414062 308.007812 562.839844 C 302.046875 563.984375 299.292969 568.34375 301.90625 573.375 C 303.246094 574.894531 304.839844 576.050781 307.226562 576.996094 C 311.65625 580.480469 316.851562 579.785156 321.875 579.464844 C 328.859375 579.023438 335.664062 577.394531 342.441406 575.714844 C 343.796875 575.378906 344.5625 574.488281 345.125 573.320312 C 349.023438 565.21875 355.527344 559.402344 362.308594 553.847656 C 363.457031 552.910156 364.601562 551.597656 367.378906 552.703125 C 357.863281 559.074219 350.75 566.742188 346.105469 576.679688 C 349.855469 577.804688 359.210938 577.351562 365.421875 576.25 C 369.175781 575.582031 371.789062 573.90625 373.421875 570.375 C 374.566406 567.898438 376.1875 565.640625 377.699219 563.351562 C 378.183594 562.625 378.769531 561.515625 380.164062 562.515625 C 379.6875 563.769531 379.210938 565.03125 378.75 566.257812 C 378.75 566.257812 378.773438 566.230469 378.417969 566.597656 C 376.683594 568.683594 374.882812 570.746094 375.601562 574.496094 C 410.085938 563.316406 441.273438 547.421875 466.375 520.433594 C 464.519531 519.246094 463.117188 518.347656 461.949219 517.601562 C 460.152344 518.429688 461.359375 520.414062 459.9375 521.203125 C 458.355469 517.398438 459.242188 514.433594 462.441406 512.417969 C 464.367188 511.203125 470.082031 512.625 472.46875 515.09375 C 475.84375 512.929688 478.390625 509.910156 480.582031 506.585938 C 485.105469 499.722656 484.792969 489.078125 476.269531 482.621094 C 468.5625 476.789062 460.417969 471.785156 452.035156 467.105469 C 431.632812 455.714844 410.5 446.300781 386.894531 443.855469 C 385.910156 443.75 384.628906 443.21875 383.980469 443.644531 C 379.113281 446.820312 373.285156 447.53125 368.175781 450.09375 C 358.046875 455.171875 352.25 463.230469 351.355469 474.457031 C 350.070312 490.59375 364.433594 505.90625 380.605469 506.007812 C 383.109375 506.023438 385.613281 506.007812 388.789062 506.007812 C 387.089844 507.777344 385.691406 507.777344 384.382812 507.878906 C 377.480469 508.40625 370.957031 507.230469 364.957031 503.597656 C 364.09375 503.074219 363.011719 501.628906 362.121094 502.636719 C 360.6875 504.257812 359.886719 503.023438 359.042969 502.328125 C 352.78125 497.148438 348.761719 490.554688 346.652344 482.710938 C 346.085938 480.59375 347.109375 480.328125 348.601562 480.5 C 348.601562 479.132812 348.546875 478.003906 348.609375 476.882812 C 349.21875 465.558594 352.621094 455.851562 363.566406 450.257812 C 367.574219 448.210938 371.488281 446.011719 375.726562 444.46875 C 376.605469 444.148438 377.746094 444.074219 377.925781 442.367188 C 372.007812 440.457031 365.890625 439.773438 359.660156 439.882812 C 358.4375 439.90625 357.183594 440.722656 356.894531 441.578125 C 356.054688 444.078125 353.9375 444.28125 352 444.976562 C 343.085938 448.171875 337.453125 454.316406 335.289062 463.589844 C 335.039062 464.652344 335.136719 466.035156 333.738281 466.484375 C 332.402344 465.257812 334.113281 463.828125 333.164062 462.632812 C 328.375 476.230469 330.351562 492.71875 338.027344 500.949219 C 335.824219 495.234375 333.347656 490.011719 334.949219 484.152344 C 336.671875 487.191406 335.824219 490.71875 337.121094 493.875 C 338.640625 497.570312 340.050781 500.132812 342.21875 501.988281 C 337.070312 491.300781 335.773438 482.667969 339.035156 479.265625 C 339.117188 480.175781 339.257812 480.898438 339.234375 481.617188 C 338.894531 491.785156 342.015625 500.53125 349.757812 507.394531 C 350.128906 507.722656 350.761719 508.183594 350.710938 508.492188 C 350.125 512.128906 353.324219 512.4375 355.316406 513.65625 C 356.894531 514.621094 358.757812 515.113281 360.460938 515.886719 C 362.183594 516.664062 364.292969 516.675781 365.976562 518.449219 C 363.292969 519.921875 361.222656 517.621094 358.683594 517.949219 C 362.40625 520.570312 366.789062 520.429688 370.484375 522.210938 C 368.484375 523.40625 366.597656 522.992188 364.648438 522.613281 C 354.199219 520.578125 345.851562 514.832031 338.101562 507.261719 C 337.703125 506.488281 337.386719 505.65625 336.890625 504.949219 C 329.304688 494.199219 326.933594 482.355469 328.9375 469.402344 C 330.617188 458.570312 334.277344 449.128906 344.644531 443.675781 C 345.121094 443.425781 345.816406 443.140625 345.3125 441.867188 C 339.957031 443.652344 333.625 444.140625 329.933594 448.613281 C 325.488281 454.003906 321.042969 459.832031 320.144531 467.253906 C 319.402344 473.402344 319.171875 479.519531 322.109375 485.273438 C 322.335938 478.914062 322.179688 472.566406 323.082031 466.277344 C 324.070312 459.410156 328.105469 452.023438 331.722656 450.234375 C 331.742188 450.347656 331.824219 450.492188 331.78125 450.570312 C 331.441406 451.226562 331.097656 451.890625 330.714844 452.523438 C 325.589844 460.925781 322.527344 469.785156 324.011719 479.863281 C 324.445312 482.808594 326.003906 486.503906 324.972656 488.554688 C 323.378906 491.726562 325.070312 493.230469 326.128906 495.230469 C 327.40625 497.644531 328.980469 499.902344 330.589844 502.492188 C 331.214844 501.898438 330.65625 500.648438 331.996094 500.78125 C 334.324219 502.691406 335.238281 506.203125 338.347656 508.265625 C 342.929688 516.09375 349.527344 521.507812 358.527344 524.296875 C 356.460938 526.15625 354.679688 524.535156 352.546875 524.886719 C 359 528.183594 365.714844 528.125 372.84375 528.949219 C 371.878906 529.742188 371.617188 530.148438 371.332031 530.164062 C 361.316406 530.6875 351.421875 530.25 343.683594 522.777344 C 334.246094 513.664062 327.101562 502.789062 321.171875 491.152344 C 315.464844 479.953125 315.886719 468.511719 320.742188 457.132812 C 322.761719 452.402344 322.457031 451.867188 317.324219 451.664062 C 305.09375 451.183594 292.902344 450.289062 280.828125 448.167969 C 274.058594 446.976562 267.226562 446.277344 260.378906 445.789062 C 257.789062 445.605469 255.378906 446.71875 253.941406 448.601562 C 253.101562 449.707031 251.449219 451.746094 253.464844 453.574219 C 255.902344 455.78125 258.167969 458.132812 259.847656 460.953125 C 255.1875 462.199219 249.925781 460.175781 248.113281 456.417969 C 246.964844 454.042969 247.496094 451.824219 248.554688 449.585938 C 249.632812 447.304688 252 446.640625 254.476562 445.3125 C 249.765625 443.71875 245.550781 443.617188 241.316406 443.46875 C 230.269531 443.074219 219.332031 441.859375 209.332031 436.71875 C 188.171875 425.84375 175.34375 407.472656 165.125 386.875 C 157.84375 372.199219 153.625 356.691406 151.4375 340.414062 C 149.515625 326.085938 152.421875 313.992188 163.28125 304.046875 C 168.261719 299.484375 173.285156 294.996094 178.570312 290.800781 C 179.664062 289.929688 181.257812 289.273438 180.65625 286.632812 C 171.144531 288.359375 165.433594 294.941406 160.117188 301.953125 C 154.800781 308.964844 150.820312 316.777344 147.421875 325.222656 C 146.09375 323.628906 146.75 322.574219 147.097656 321.574219 C 152.535156 306.058594 160.441406 292.511719 176.175781 285.226562 C 177.320312 284.699219 178.855469 283.898438 178.234375 282.542969 C 177.105469 280.074219 177.519531 277.042969 175.59375 275 C 174.882812 274.246094 173.714844 275.265625 172.933594 275.835938 C 168.601562 279.007812 164.117188 282 160.726562 286.28125 C 159.5625 287.75 158.035156 288.960938 157.101562 291.558594 C 161.136719 288.324219 163.835938 284.699219 168.175781 283.121094 C 165.0625 286.140625 162.621094 289.710938 159.582031 292.667969 C 156.648438 295.523438 154.8125 299.320312 150.316406 301.011719 C 147.707031 301.996094 146.269531 306.1875 145.660156 309.632812 C 144.574219 315.773438 145.042969 322.101562 143.402344 328.171875 C 143.140625 329.140625 143.507812 330.476562 141.3125 330.695312 C 142.265625 322.988281 141.695312 315.214844 144.109375 308.050781 C 148.628906 294.652344 157.269531 284.089844 168.792969 275.914062 C 171.339844 274.109375 173.96875 272.421875 176.550781 270.664062 C 177.722656 269.867188 179.1875 268.746094 177.851562 267.398438 C 174.226562 263.753906 173.289062 259.324219 173.972656 254.28125 C 170.195312 255.433594 162.90625 262.167969 160.835938 266.011719 C 163.777344 263.390625 163.777344 263.390625 166.746094 263.214844 C 154.574219 273.503906 148.773438 287.007812 143.519531 300.71875 C 138.128906 314.78125 139.160156 329.824219 138.003906 344.898438 C 137.503906 344.296875 137.28125 344.136719 137.214844 343.925781 C 137.070312 343.453125 136.964844 342.957031 136.914062 342.464844 C 135.484375 328.898438 136.742188 315.535156 140.753906 302.550781 C 142.664062 296.371094 144.023438 290.175781 145.035156 282.628906 C 143.742188 285.136719 142.609375 285.730469 141.066406 284.367188 C 140.675781 285.363281 140.460938 286.082031 140.128906 286.738281 C 135.875 295.152344 136.691406 304.648438 134.394531 313.480469 C 134.210938 314.1875 134.355469 314.855469 134.625 315.617188 C 135.585938 318.34375 136.371094 321.152344 132.796875 322.8125 C 131.78125 323.285156 131.511719 324.277344 131.503906 325.335938 C 131.421875 334.992188 132.992188 344.425781 135.28125 354.582031 C 135.808594 351.363281 133.847656 348.976562 135.589844 346.117188 C 138.96875 354.410156 137.015625 363.011719 138.265625 371.699219 C 144.144531 366.480469 148.535156 367.097656 151.316406 373.484375 C 146.371094 371.589844 142.601562 372.875 139.507812 377.339844 C 141.226562 384.484375 143.015625 392.261719 144.976562 399.992188 C 150.734375 422.667969 156.910156 445.125 170.449219 464.820312 C 179.464844 477.941406 188.605469 490.851562 201.296875 501.441406 C 202.023438 502.109375 202.746094 502.777344 203.789062 503.777344 C 207.945312 506.875 211.113281 511.28125 216.5 513.453125 C 217.34375 514.320312 218.1875 515.183594 219.351562 516.421875 C 228.328125 523.667969 237.523438 530.585938 248.050781 536.074219 C 247.945312 530.125 249.714844 528.261719 254.445312 529.269531 C 251.488281 530.4375 254.242188 532.441406 253.410156 533.84375 C 251.148438 537.648438 253.648438 539.242188 256.476562 540.621094 C 266.902344 545.714844 278.128906 548.019531 289.453125 549.960938 C 290.191406 550.085938 290.949219 550.210938 291.703125 549.203125 C 288.851562 545.933594 286.578125 542.296875 288.21875 537.570312 C 289.535156 533.765625 294.1875 529.863281 298.007812 529.859375 C 294.839844 532.53125 291.816406 534.878906 290.261719 539.359375 C 292.84375 536.699219 294.386719 533.945312 298.121094 533.273438 C 297.085938 535.941406 294.402344 536.425781 293.730469 539.175781 C 292.820312 541.789062 293.351562 544.039062 295.828125 546.222656 C 296.804688 547.042969 298.570312 546.886719 298.839844 548.574219 C 298.09375 549.820312 296.847656 548.40625 295.410156 549.519531 C 309.1875 554.367188 323.3125 553.292969 337.015625 555.535156 C 336.234375 557.492188 333.875 557.222656 333.003906 558.753906 C 333.003906 558.753906 333.035156 558.730469 332.496094 558.84375 M 418.660156 82.03125 C 403.058594 79.832031 387.390625 78.628906 371.621094 78.867188 C 363.753906 78.988281 355.867188 78.820312 348.082031 80.1875 C 331.132812 83.160156 315.585938 89.796875 300.796875 98.410156 C 269.105469 116.863281 246.5625 142.984375 234.683594 177.851562 C 227.792969 198.09375 225.511719 219.050781 227.671875 240.265625 C 229.53125 258.546875 235.441406 275.773438 243.410156 292.332031 C 253.65625 313.628906 269.605469 329.964844 288.132812 343.972656 C 309.914062 360.433594 334.734375 369.273438 361.816406 371.789062 C 370.882812 372.628906 380.039062 372.550781 389.097656 373.4375 C 419.648438 376.425781 447.285156 387.613281 470.914062 406.789062 C 503.414062 433.164062 520.660156 468.289062 524.503906 509.886719 C 526.90625 535.90625 522.355469 561.007812 512.28125 584.9375 C 497.5625 619.890625 471.140625 643.59375 437.753906 660.25 C 436.273438 660.988281 434.566406 661.414062 433.433594 662.808594 C 434.3125 663.648438 435.050781 663.46875 435.773438 663.285156 C 442.910156 661.472656 450.109375 659.867188 457.171875 657.800781 C 501.988281 644.699219 541.476562 622.152344 575.601562 590.320312 C 616.25 552.40625 644.027344 506.5625 658.996094 453.070312 C 667.953125 421.066406 671.042969 388.425781 668.941406 355.210938 C 667.359375 330.257812 662.785156 305.949219 654.984375 282.261719 C 638.222656 231.375 609.617188 188.1875 569.585938 152.636719 C 543.355469 129.339844 513.691406 111.566406 481.015625 98.765625 C 461.050781 90.945312 440.4375 85.601562 418.660156 82.03125 M 183.847656 214.894531 C 181.140625 219.550781 178.070312 223.972656 174.578125 228.046875 C 169.296875 234.207031 163.464844 239.910156 158.414062 246.246094 C 151.222656 255.269531 148.136719 266.410156 143.734375 276.855469 C 142.660156 279.402344 145.011719 279.472656 146.460938 280.664062 C 149.847656 272.273438 156.273438 266.609375 162.386719 260.792969 C 170.816406 252.777344 178.902344 244.496094 185.839844 235.132812 C 186.878906 233.730469 188.28125 232.5 187.855469 230.515625 C 187.253906 227.722656 187.921875 225.0625 188.589844 222.40625 C 191.109375 212.410156 196.613281 203.929688 202.167969 195.449219 C 204.679688 191.613281 206.855469 187.554688 209.625 182.855469 C 206.863281 183.816406 205.710938 185.152344 204.441406 186.320312 C 195.75 194.296875 189.597656 204.121094 183.847656 214.894531 M 203.152344 538.242188 C 205.628906 538.535156 208.109375 538.761719 210.570312 539.148438 C 211.722656 539.332031 213.601562 538.75 213.210938 541.191406 C 213.085938 541.972656 214.03125 542.035156 214.613281 541.972656 C 219.753906 541.453125 224.429688 544.171875 229.644531 543.925781 C 232.601562 543.785156 235.648438 545.570312 238.160156 546.335938 C 238.734375 548.148438 237.042969 547.175781 237.183594 548.671875 C 242.328125 548.613281 248.191406 545.6875 251.710938 551.234375 C 255.992188 549.449219 260.019531 548.859375 264.152344 548.804688 C 266.097656 548.78125 266.398438 551.011719 267.5625 551.566406 C 273.054688 554.195312 279.273438 555.109375 285.015625 556.59375 C 292.207031 558.449219 300.421875 556.328125 308.195312 555.925781 C 296.839844 553.539062 285.335938 552.652344 274.289062 549.445312 C 260.039062 545.304688 245.726562 541.515625 230.992188 539.570312 C 216.390625 537.640625 202.375 533.871094 189.433594 526.648438 C 184.835938 524.082031 179.972656 522.207031 174.996094 520.488281 C 168.875 518.367188 162.707031 516.300781 156.9375 513.253906 C 153.203125 511.285156 150.148438 508.335938 146.335938 506.445312 C 151.597656 512.550781 156.707031 518.785156 164.894531 521.339844 C 167.058594 522.015625 169.25 523.023438 169.3125 525.902344 C 172.398438 524.925781 175.796875 526.851562 175.804688 529.765625 C 175.808594 530.929688 176.6875 531.253906 177.058594 531.15625 C 181.121094 530.101562 184.082031 533.039062 187.59375 533.917969 C 187.9375 534.003906 188.285156 534.070312 188.828125 534.191406 C 188.289062 533.484375 187.875 532.941406 187.421875 532.347656 C 188.589844 531.34375 189.308594 531.527344 190.699219 532.144531 C 194.761719 533.953125 197.957031 537.445312 203.152344 538.242188 M 174.9375 483.855469 C 173.78125 484.160156 172.863281 482.550781 171.222656 483.488281 C 177.105469 489.59375 184.175781 493.304688 191.601562 496.542969 C 183.71875 487.609375 176.214844 478.445312 169.976562 468.332031 C 167.769531 464.757812 165.082031 461.804688 161.71875 459.296875 C 153.121094 452.875 146.0625 444.980469 140.167969 436.039062 C 133.492188 425.910156 127.816406 415.203125 122.023438 404.566406 C 121.09375 402.859375 120.214844 401.136719 118.042969 400.144531 C 123.914062 421.902344 132.585938 441.832031 148.8125 458.855469 C 147.988281 456.117188 145.898438 454.941406 146.660156 452.429688 C 150.785156 458.238281 155.601562 463.441406 160.25 468.804688 C 157.679688 468.886719 156.773438 466.628906 154.511719 465.589844 C 157.269531 468.828125 159.675781 471.691406 162.132812 474.511719 C 162.863281 475.351562 163.621094 476.515625 164.769531 476.484375 C 169.996094 476.351562 172.226562 480.5 174.9375 483.855469 M 138.132812 403.066406 C 138.046875 404.878906 139.445312 406.683594 138.390625 409.066406 C 135.957031 405.761719 136.519531 402.148438 135.070312 398.546875 C 134.824219 407.128906 138.675781 414.128906 140.960938 421.566406 C 138.734375 421.753906 139.058594 419.414062 137.234375 418.589844 C 141.226562 428.039062 145.78125 436.488281 150.875 444.625 C 153.6875 449.117188 156.570312 453.695312 162.066406 456.046875 C 161.882812 455.335938 161.851562 454.832031 161.636719 454.425781 C 149.988281 432.6875 144.8125 408.847656 139.128906 385.167969 C 135.71875 370.957031 132.828125 356.652344 130.414062 342.242188 C 130.199219 340.980469 130.386719 339.382812 128.253906 339.019531 C 127.140625 341.230469 128.140625 343.40625 128.496094 345.496094 C 130.292969 356.109375 129.507812 366.96875 132.628906 377.539062 C 134.519531 383.933594 134.007812 391.019531 137.089844 397.3125 C 137.824219 398.8125 137.726562 400.726562 138.132812 403.066406 M 159.054688 241.96875 C 167.21875 233.03125 175.789062 224.425781 181.917969 213.832031 C 188.058594 203.222656 194.5 192.832031 203.570312 184.367188 C 204 183.964844 204.46875 183.445312 203.613281 182.375 C 192.800781 188.796875 185.785156 198.644531 178.652344 209.53125 C 181.214844 208.0625 181.421875 205.4375 184.207031 204.519531 C 181.863281 209.316406 179.132812 213.320312 177.933594 218.148438 C 176.597656 223.535156 170.46875 224.5625 166.988281 228.207031 C 164.53125 230.785156 160.785156 231.355469 161.460938 236.578125 C 161.742188 238.75 158.652344 242.007812 155.910156 243.949219 C 155.046875 242.292969 157.160156 241.59375 156.605469 240.046875 C 152.253906 245.355469 148.792969 250.976562 145.457031 256.6875 C 144.964844 257.527344 143.941406 258.566406 144.511719 259.382812 C 145.996094 261.523438 144.605469 263.242188 143.976562 265 C 142.410156 269.34375 140.714844 273.640625 138.945312 277.902344 C 138.214844 279.65625 137.898438 281.710938 135.746094 283.335938 C 136.21875 277.988281 139.304688 273.871094 139.578125 269.054688 C 133.648438 279.488281 130.988281 290.632812 132.019531 302.605469 C 132.902344 301.859375 133.460938 301.011719 133.671875 300.085938 C 135.660156 291.285156 139.074219 282.96875 142.316406 274.601562 C 146.6875 263.3125 150.90625 251.929688 159.054688 241.96875 M 296.949219 580.238281 C 291.113281 578.324219 287.058594 581.386719 284.339844 585.753906 C 280.640625 591.703125 275.132812 594.160156 268.820312 595 C 256.347656 596.65625 244.074219 594.945312 232.179688 591.988281 C 235.648438 596.550781 240.699219 597.753906 246.78125 596.476562 C 245.875 598.574219 243.976562 597.613281 243.441406 599.050781 C 244.242188 600.453125 245.738281 601.035156 246.875 600.140625 C 250 597.683594 251.417969 601.136719 253.597656 601.578125 C 259.992188 602.871094 266.613281 603.800781 273.027344 601.097656 C 269.96875 600.957031 266.890625 602.554688 263.804688 600.949219 C 265.566406 600.34375 267.363281 600.039062 269.167969 599.804688 C 272.667969 599.351562 276.953125 599.742188 279.527344 598.398438 C 287.652344 594.164062 293.707031 586.84375 301.628906 582.023438 C 300.320312 580.324219 298.742188 580.871094 296.949219 580.238281 M 226.78125 584.476562 C 227.960938 584.328125 229.277344 584.375 229.574219 585.695312 C 230.222656 588.609375 232.433594 588.332031 234.238281 587.808594 C 236.230469 587.234375 237.472656 587.648438 238.753906 589.101562 C 239.71875 590.199219 240.769531 591.671875 242.027344 591.984375 C 248.78125 593.640625 255.660156 592.890625 262.207031 591.207031 C 264.617188 590.585938 266.71875 589.933594 269.136719 590.410156 C 273.167969 591.203125 277.164062 589.355469 279.996094 587.664062 C 282.808594 585.988281 285.171875 582.242188 287.476562 578.847656 C 284.660156 577.886719 282.257812 576.699219 279.480469 576.78125 C 279.359375 582.960938 277.328125 585.457031 271.378906 586.792969 C 268.21875 587.5 264.96875 587.855469 261.871094 588.753906 C 256.460938 590.324219 251.28125 589.769531 246.109375 587.859375 C 243.773438 586.996094 241.4375 586.035156 239.019531 585.511719 C 229.257812 583.40625 220.335938 579.382812 211.925781 574.09375 C 210.667969 573.304688 209.457031 572.191406 207.125 572.460938 C 210.640625 576.214844 213.15625 580.414062 217.832031 581.589844 C 220.75 582.328125 223.609375 582.996094 226.78125 584.476562 M 236.871094 385.207031 C 239.671875 387.078125 242.453125 388.972656 245.28125 390.800781 C 245.925781 391.21875 246.84375 392.359375 247.460938 391.371094 C 249.074219 388.796875 250.152344 391.160156 250.898438 391.828125 C 253.082031 393.78125 254.984375 396.058594 257.28125 398.511719 C 257.355469 396.800781 255.523438 396.183594 255.941406 395.21875 C 256.523438 394.160156 257.8125 395.449219 257.824219 394.054688 C 255.738281 391.011719 224.894531 373.449219 221.183594 373.597656 C 226.011719 378.273438 231.390625 381.371094 236.871094 385.207031 M 267.699219 436.90625 C 263.65625 431.148438 261.253906 429.109375 256.699219 427.640625 C 259.941406 431.382812 263.828125 434.507812 264.921875 439.640625 C 262 434.839844 257.308594 431.644531 254.128906 427.191406 C 252.777344 425.304688 251.34375 425.476562 249.683594 425.421875 C 248.921875 425.398438 248.058594 425.746094 247.972656 426.582031 C 247.777344 428.546875 249.644531 428.828125 250.777344 429.640625 C 255.234375 432.832031 260.113281 435.8125 263.113281 440.324219 C 265.515625 443.941406 267.894531 443.140625 270.917969 442.859375 C 270.832031 440.207031 268.957031 439.035156 267.699219 436.90625 M 276.371094 425.390625 C 275.148438 414.808594 266.722656 408.308594 262.398438 399.515625 C 261.003906 400.175781 260.160156 400.574219 258.917969 401.164062 C 262.234375 405.582031 265.460938 409.84375 268.640625 414.140625 C 271.792969 418.394531 272.09375 424.371094 277.007812 427.808594 C 276.800781 427.050781 276.640625 426.464844 276.371094 425.390625 M 256.980469 411.707031 C 259.945312 414.058594 264.632812 415.070312 263.710938 420.476562 C 263.644531 420.878906 264.445312 422.128906 265.199219 421.785156 C 267.578125 420.691406 267.828125 422.984375 268.875 423.921875 C 270.910156 425.738281 271.703125 428.773438 274.675781 430.082031 C 272.914062 423.375 254.746094 402.882812 250.441406 402.792969 C 252.574219 405.695312 254.617188 408.480469 256.980469 411.707031 M 267.96875 433.679688 C 271.230469 437.007812 272.542969 442.292969 277.832031 444.28125 C 278.117188 441.960938 276.925781 441.03125 276.109375 440.042969 C 271.359375 434.285156 266.578125 428.546875 261.683594 422.910156 C 259.023438 419.84375 258.058594 420.058594 255.691406 424.015625 C 260.714844 425.761719 264.296875 429.367188 267.96875 433.679688 M 131.605469 413.886719 C 132.246094 414.597656 132.882812 415.304688 133.519531 416.015625 C 130.738281 408.96875 130.324219 400.570312 122.386719 396.210938 C 122.148438 396.894531 121.875 397.265625 121.9375 397.566406 C 123.164062 403.414062 126.359375 408.382812 129.113281 413.554688 C 129.769531 414.789062 130.476562 414.117188 131.605469 413.886719 M 422.355469 558.882812 C 426.847656 562.234375 429.457031 561.53125 431.621094 556.71875 C 433.335938 552.917969 435.851562 549.9375 440.71875 550.890625 C 440.90625 548.519531 440.050781 546.859375 438.070312 548.167969 C 432.832031 551.640625 427.132812 554.414062 422.355469 558.882812 M 287.734375 438.714844 C 286.597656 437.113281 285.335938 435.675781 283.269531 434.875 C 284.613281 442.246094 292.578125 449.429688 297.835938 446.875 C 297.449219 445.335938 296.171875 444.429688 294.894531 444.558594 C 290.75 444.976562 289.394531 442.113281 287.734375 438.714844 M 280.363281 436.316406 C 279.28125 435.058594 278.339844 433.636719 276.464844 432.648438 C 278.261719 438.171875 279.164062 443.800781 286.421875 445.855469 C 284.207031 442.324219 282.449219 439.527344 280.363281 436.316406 M 226.792969 547.273438 C 226.0625 547.121094 225.457031 546.292969 224.410156 546.820312 C 230.835938 551.09375 237.558594 553.710938 245.265625 553.054688 C 239.238281 551.28125 233.144531 549.714844 226.792969 547.273438 M 131.863281 398.800781 C 132.964844 407.882812 134.171875 412.132812 136.886719 415.722656 C 132.550781 406.910156 132.574219 397.308594 132.167969 387.785156 C 131.867188 387.820312 131.566406 387.855469 131.265625 387.886719 C 131.429688 391.300781 131.59375 394.714844 131.863281 398.800781 M 139.492188 428.5 C 137.195312 422.941406 137.195312 422.941406 133.964844 422.148438 C 136.6875 426.289062 139.179688 430.082031 141.671875 433.875 C 141.84375 433.765625 142.015625 433.65625 142.183594 433.546875 C 141.375 432.027344 140.566406 430.507812 139.492188 428.5 M 156.578125 510.152344 C 156.695312 510.164062 156.832031 510.21875 156.929688 510.179688 C 157.011719 510.148438 157.109375 509.929688 157.101562 509.925781 C 153.964844 507.605469 151.664062 504.140625 147.300781 502.425781 C 149.484375 506.613281 153.21875 507.863281 156.578125 510.152344 M 257.699219 604.496094 C 257 604.382812 256.296875 604.269531 255.597656 604.152344 C 258.597656 605.570312 261.652344 606.433594 264.871094 604.574219 C 262.667969 604.574219 260.460938 604.574219 257.699219 604.496094 M 269.785156 554.964844 C 273.027344 555.742188 276.164062 557.082031 280.515625 556.921875 C 276.179688 555.871094 272.722656 555.03125 269.257812 554.21875 C 269.234375 554.210938 269.117188 554.527344 269.089844 554.699219 C 269.085938 554.734375 269.296875 554.800781 269.785156 554.964844 Z M 269.785156 554.964844 "/>
<path style=" stroke:none;fill-rule:nonzero;fill:rgb(0%,0%,0%);fill-opacity:1;" d="M 201.164062 501.242188 C 200.296875 499.742188 199.554688 498.449219 198.839844 497.144531 C 195.949219 491.886719 197.78125 486.191406 203.171875 483.652344 C 207.882812 481.433594 215.671875 482.75 219.144531 486.484375 C 217.460938 486.976562 216.214844 485.859375 214.699219 485.636719 C 212.367188 490.3125 203.496094 488.15625 204.167969 496.320312 C 201.722656 494.71875 202.378906 492.773438 202.699219 490.910156 C 200.660156 495.199219 203.746094 498.402344 204.964844 501.960938 C 205.449219 503.371094 205.472656 503.824219 203.683594 503.476562 C 202.746094 502.777344 202.023438 502.109375 201.164062 501.242188 Z M 201.164062 501.242188 "/>
<path style=" stroke:none;fill-rule:nonzero;fill:rgb(0%,0%,0%);fill-opacity:1;" d="M 216.351562 513.300781 C 214.464844 506.828125 214.996094 504.722656 218.988281 502.109375 C 223.414062 499.207031 228.046875 499.351562 232.132812 502.6875 C 229.132812 504.214844 225.570312 504.585938 223.507812 507.558594 C 222.625 508.835938 221.558594 507.613281 220.089844 507.292969 C 220.492188 510.363281 220.863281 513.207031 221.265625 516.273438 C 220.613281 516.21875 220.027344 516.167969 219.238281 516.082031 C 218.1875 515.183594 217.34375 514.320312 216.351562 513.300781 Z M 216.351562 513.300781 "/>
<path style=" stroke:none;fill-rule:nonzero;fill:rgb(0%,0%,0%);fill-opacity:1;" d="M 125.257812 447.785156 C 125.324219 446.613281 124.40625 445.683594 125.363281 444.113281 C 132.816406 455.636719 142.140625 465.339844 149.664062 476.460938 C 143.289062 471.273438 139.09375 464.125 132.980469 458.414062 C 130.316406 454.859375 127.863281 451.4375 125.257812 447.785156 Z M 125.257812 447.785156 "/>
<path style=" stroke:none;fill-rule:nonzero;fill:rgb(0%,0%,0%);fill-opacity:1;" d="M 301.753906 573.226562 C 301.828125 567.472656 307.230469 562.980469 313.402344 563.773438 C 309.90625 566.515625 304.210938 566.03125 303.289062 571.625 C 304.578125 572.445312 306.128906 571.75 307.429688 572.703125 C 308.769531 573.679688 309.058594 575.105469 309.957031 576.242188 C 309.253906 577.492188 308.1875 576.753906 307.015625 576.773438 C 304.839844 576.050781 303.246094 574.894531 301.753906 573.226562 Z M 301.753906 573.226562 "/>
<path style=" stroke:none;fill-rule:nonzero;fill:rgb(0%,0%,0%);fill-opacity:1;" d="M 293.820312 538.925781 C 294.550781 538.410156 295.089844 537.792969 296.308594 538.269531 C 294.078125 540.679688 296.375 543.261719 295.640625 545.867188 C 293.351562 544.039062 292.820312 541.789062 293.820312 538.925781 Z M 293.820312 538.925781 "/>
<path style=" stroke:none;fill-rule:nonzero;fill:rgb(0%,0%,0%);fill-opacity:1;" d="M 298.820312 591.542969 C 297.988281 591.453125 296.664062 591.144531 297.414062 590.496094 C 299.132812 589.015625 300.839844 586.773438 303.824219 588.421875 C 302.148438 589.34375 301.027344 591.210938 298.820312 591.542969 Z M 298.820312 591.542969 "/>
<path style=" stroke:none;fill-rule:nonzero;fill:rgb(0%,0%,0%);fill-opacity:1;" d="M 151.699219 498.929688 C 150.835938 497.855469 149.601562 497.28125 149.410156 495.5 C 152.210938 496.492188 154.035156 498.195312 155.855469 499.894531 C 155.207031 501.398438 154.308594 500.394531 153.339844 500.378906 C 152.6875 499.921875 152.269531 499.503906 151.699219 498.929688 Z M 151.699219 498.929688 "/>
<path style=" stroke:none;fill-rule:nonzero;fill:rgb(0%,0%,0%);fill-opacity:1;" d="M 538.621094 158.164062 C 530.972656 153.738281 523.050781 150.769531 514.710938 148.890625 C 512.710938 148.441406 510.6875 148.476562 508.765625 148.992188 C 506.136719 149.695312 503.730469 150.828125 504.355469 154.273438 C 502.144531 154.496094 501.160156 152.972656 499.851562 152.128906 C 493.933594 148.3125 487.753906 145.546875 480.492188 147.476562 C 474.527344 149.0625 472.207031 152.667969 473.550781 157.738281 C 474.085938 159.765625 475.246094 161.128906 477.128906 161.722656 C 490.28125 165.882812 500.710938 175.402344 513.285156 180.363281 C 521.617188 183.652344 529.839844 187.238281 538.148438 190.582031 C 545.046875 193.359375 552.238281 194.417969 559.390625 195.851562 C 568.078125 197.59375 576.152344 200.835938 583.523438 205.707031 C 594.894531 213.222656 606.035156 221.054688 615.4375 231.058594 C 616.457031 232.144531 617.570312 233.171875 617.980469 234.671875 C 615.917969 237.371094 616.714844 241.003906 619.628906 245.136719 C 629.4375 259.066406 637.488281 274.007812 644.613281 289.460938 C 644.910156 290.105469 645.394531 290.804688 644.578125 291.652344 C 642.375 290.40625 641.359375 287.5 638.703125 287.007812 C 637.804688 287.316406 637.566406 288.03125 637.785156 288.566406 C 643.816406 303.320312 642.929688 319.726562 648.640625 334.503906 C 651.847656 342.808594 654.8125 351.085938 656.003906 359.953125 C 657.273438 369.398438 657.625 378.871094 656.859375 388.351562 C 656.527344 392.472656 656.628906 396.589844 656.363281 400.699219 C 656.28125 401.960938 656.878906 403.488281 655.214844 404.496094 C 653.953125 403.195312 654.027344 401.507812 653.929688 399.988281 C 653.3125 390.523438 652.683594 381.054688 652.285156 371.582031 C 651.996094 364.683594 649.820312 358.363281 646.960938 352.226562 C 646.226562 350.648438 644.984375 349.367188 642.898438 349.117188 C 641.101562 351.351562 643.113281 353.875 642.453125 357.042969 C 639.238281 352.621094 636.992188 348.183594 631.203125 345.773438 C 631.207031 369.902344 632.109375 393.269531 635.734375 416.421875 C 633.816406 417.015625 633.347656 414.941406 631.960938 415.3125 C 630.617188 416.109375 630.691406 417.523438 630.851562 418.65625 C 631.648438 424.175781 630.542969 429.667969 631.21875 435.300781 C 632.125 442.890625 631.136719 450.75 630.5625 458.464844 C 629.03125 479.125 618.550781 496.140625 607.316406 512.554688 C 595.257812 530.175781 582.460938 547.304688 569.601562 564.363281 C 560.675781 576.199219 548.070312 583.421875 534.527344 590.5625 C 535.121094 588.273438 535.484375 586.660156 536.699219 585.621094 C 546.148438 577.566406 551.15625 566.300781 557.859375 556.285156 C 562.800781 548.902344 566.746094 540.9375 568.496094 532.082031 C 568.640625 531.347656 569.09375 530.511719 568.882812 529.898438 C 566.984375 524.328125 570.714844 521.109375 573.769531 517.488281 C 576.339844 514.4375 578.746094 511.230469 581.007812 507.945312 C 584.875 502.328125 583.886719 492.972656 579 488.117188 C 577.699219 486.824219 577.226562 485.910156 578.378906 484.003906 C 581.859375 478.226562 581.066406 474.617188 575.921875 470.355469 C 571.757812 466.910156 571.796875 466.839844 576.199219 463.371094 C 583.664062 457.492188 590.964844 451.445312 597.605469 444.605469 C 606.363281 435.585938 609.132812 425.003906 607.628906 412.640625 C 605.964844 398.953125 603.769531 385.46875 598.441406 372.667969 C 596.859375 368.863281 594.933594 365.199219 593.417969 361.371094 C 592.398438 358.800781 589.878906 357.953125 588.210938 356.140625 C 583.351562 350.855469 577.710938 346.515625 571.359375 343.167969 C 569.457031 342.167969 568.546875 340.804688 568.496094 338.753906 C 568.457031 337.253906 568.292969 335.734375 568.464844 334.257812 C 569.503906 325.316406 564.929688 319.507812 558.101562 314.625 C 546.285156 306.171875 533.222656 301.726562 518.726562 300.835938 C 511.039062 300.363281 503.230469 300.597656 495.699219 298.355469 C 493.734375 297.773438 491.578125 297.675781 490.425781 299.875 C 489.328125 301.96875 491.21875 303.089844 492.371094 304.269531 C 496.855469 308.863281 502.09375 312.476562 507.636719 315.671875 C 508.476562 316.152344 509.546875 316.421875 509.71875 317.71875 C 508.511719 319.371094 506.574219 319.371094 504.796875 319.871094 C 502.769531 320.441406 500.785156 321.238281 498.871094 322.128906 C 493.316406 324.710938 492.902344 326.449219 496.15625 331.507812 C 499.539062 336.769531 503.269531 341.707031 508.527344 345.164062 C 508.113281 345.800781 508.03125 346.09375 507.847656 346.183594 C 506.480469 346.867188 504.199219 345.734375 503.640625 347.808594 C 503.097656 349.824219 505.082031 350.851562 506.269531 352.027344 C 511.378906 357.082031 517.902344 360.179688 523.703125 364.277344 C 532.824219 370.71875 541.695312 377.363281 548.28125 386.5625 C 548.980469 387.546875 550.042969 388.378906 550.003906 389.792969 C 548.96875 390.695312 548.328125 389.808594 547.863281 389.203125 C 538.996094 377.671875 526.335938 371.203125 513.59375 365.820312 C 499.335938 359.796875 489.917969 349.851562 482.484375 336.9375 C 479.746094 332.179688 477.539062 326.824219 472.738281 323.433594 C 472.21875 323.070312 472.023438 322.140625 471.828125 321.429688 C 468.632812 309.84375 459.882812 303.273438 450.601562 296.765625 C 444.285156 292.332031 437.691406 291.796875 430.535156 291.828125 C 425.6875 291.855469 421.785156 291.761719 417.378906 295.710938 C 411.703125 300.800781 403.363281 301.871094 395.707031 303.234375 C 384.535156 305.226562 373.679688 303.25 362.6875 301.164062 C 346.617188 298.117188 330.492188 295.613281 315.324219 289.019531 C 296.925781 281.023438 279.605469 271.191406 262.8125 260.246094 C 250.070312 251.945312 251.375 235.792969 258.890625 227.640625 C 267.050781 218.785156 276.515625 211.382812 285.410156 203.34375 C 287.171875 201.753906 288.960938 200.1875 290.800781 198.691406 C 294.699219 195.519531 297.65625 192.464844 297.976562 186.519531 C 298.464844 177.460938 309.484375 170.996094 317.699219 173.765625 C 319.734375 174.453125 321.554688 175.445312 322.894531 177.347656 C 334.375 171.972656 345.710938 166.414062 357.652344 162.304688 C 362.542969 160.621094 367.609375 159.648438 372.683594 158.617188 C 379.011719 157.332031 385.3125 155.980469 391.746094 155.410156 C 395.515625 155.078125 399.460938 153.929688 402.886719 156.828125 C 403.585938 157.417969 404.542969 157.089844 405.417969 156.902344 C 411.035156 155.714844 417.003906 155.394531 422.203125 153.226562 C 431.234375 149.457031 440.679688 146.5 448.855469 140.730469 C 459.890625 132.9375 471.917969 127.339844 485.492188 125.398438 C 493.542969 124.246094 500.71875 126.296875 507.75 129.984375 C 517.078125 134.875 525.59375 140.996094 534.25 146.90625 C 542.144531 152.292969 548.667969 159.222656 555.476562 165.828125 C 555.835938 166.175781 556.035156 166.644531 555.488281 167.648438 C 549.402344 165.582031 544.570312 161.105469 538.621094 158.164062 M 327.28125 261.101562 C 327.011719 267.738281 333.75 271.6875 340.550781 268.878906 C 344.09375 267.414062 345.125 264.328125 343.195312 260.964844 C 339.941406 255.292969 332 255.09375 327.28125 261.101562 Z M 327.28125 261.101562 "/>
<path style=" stroke:none;fill-rule:nonzero;fill:rgb(0%,0%,0%);fill-opacity:1;" d="M 388.972656 472.511719 C 393.109375 465.414062 399.453125 462.894531 406.988281 462.632812 C 408.964844 462.5625 411.53125 463.441406 410.394531 459.757812 C 412.609375 459.820312 413.847656 460.972656 415.289062 461.65625 C 416.609375 462.277344 417.53125 462.992188 419.550781 462.214844 C 421.941406 461.296875 423.683594 464.09375 424.9375 465.992188 C 424.757812 467.304688 423.386719 466.398438 423.203125 467.425781 C 424.484375 469.339844 426.464844 470.800781 427.398438 473.3125 C 425.742188 473.800781 425.191406 471.605469 423.691406 471.996094 C 423.691406 472.292969 423.578125 472.683594 423.707031 472.957031 C 427.957031 481.929688 427.007812 485.875 419.113281 491.898438 C 409.589844 499.160156 398.34375 497.691406 391.140625 488.222656 C 387.546875 483.5 386.441406 478.394531 388.972656 472.511719 M 392.980469 471.375 C 389.203125 477.097656 388.867188 481.417969 392.652344 486.144531 C 402.234375 498.101562 413.109375 496.945312 422.347656 485.09375 C 424.25 482.652344 424.195312 479.5625 423.097656 476.851562 C 420.65625 470.8125 416.179688 466.644531 409.753906 465.449219 C 403.464844 464.277344 397.554688 465.453125 392.980469 471.375 Z M 392.980469 471.375 "/>
<path style=" stroke:none;fill-rule:nonzero;fill:rgb(0%,0%,0%);fill-opacity:1;" d="M 269.042969 502.214844 C 270.402344 503.097656 271.785156 503.808594 273.167969 504.523438 C 273.140625 504.878906 273.117188 505.234375 273.089844 505.589844 C 267.304688 504.917969 261.449219 499.992188 255.566406 504.964844 C 256.617188 505.542969 257.496094 504.070312 258.59375 505.308594 C 258.121094 507.328125 255.785156 508.710938 255.816406 511.277344 C 255.847656 513.835938 257.558594 515.527344 258.671875 517.671875 C 256.507812 518.253906 256.09375 516.164062 254.636719 515.746094 C 255.695312 519.121094 259.488281 519.21875 261.589844 521.613281 C 256.125 521.652344 250.628906 516.820312 250.28125 512 C 249.800781 505.359375 253.496094 501.511719 262.148438 500.492188 C 258.015625 495.730469 257.660156 490.976562 261.78125 486.390625 C 264.226562 483.667969 266.820312 482.6875 270.796875 483.25 C 268.339844 485.246094 264.984375 485.238281 263.335938 487.949219 C 261.734375 490.582031 261.527344 493.230469 262.527344 496.117188 C 262.84375 494.089844 262.773438 491.984375 264.238281 490.320312 C 265.605469 488.765625 266.792969 486.984375 269.175781 486.792969 C 269.273438 487.242188 269.433594 487.59375 269.351562 487.671875 C 263.230469 493.101562 263.183594 494.371094 268.976562 500.414062 C 269.496094 500.960938 269.574219 501.476562 269.042969 502.214844 Z M 269.042969 502.214844 "/>
<path style=" stroke:none;fill-rule:nonzero;fill:rgb(0%,0%,0%);fill-opacity:1;" d="M 264.980469 532.027344 C 264.949219 532.351562 264.917969 532.484375 264.945312 532.601562 C 264.988281 532.804688 265.066406 533.003906 265.132812 533.207031 C 265.671875 532.75 265.546875 531.714844 266.851562 531.644531 C 267.875 538.695312 273.6875 540.742188 279.832031 542.589844 C 275.9375 545.675781 270.441406 545.496094 266.367188 542.566406 C 260.792969 538.5625 258.332031 532.847656 260.027344 527.867188 C 261.695312 522.976562 266.875 519.578125 273.15625 519.992188 C 267.488281 523.3125 261.828125 525.953125 262.5625 533.214844 C 263.089844 531.742188 263.0625 530.035156 264.046875 528.726562 C 265.082031 527.347656 266.050781 525.855469 268.246094 525.320312 C 267.863281 527.992188 265.128906 529.308594 264.980469 532.027344 Z M 264.980469 532.027344 "/>
<path style=" stroke:none;fill-rule:nonzero;fill:rgb(0%,0%,0%);fill-opacity:1;" d="M 292.96875 466.871094 C 293.140625 469.734375 294.070312 472.195312 295.085938 474.945312 C 289.296875 477.652344 284.046875 480.898438 284.335938 488.285156 C 284.613281 495.34375 289.785156 498.683594 295.816406 501.71875 C 290.582031 502.929688 284.6875 498.152344 282.429688 491.683594 C 279.988281 484.679688 283.5625 478.039062 292.308594 473.710938 C 288.753906 470.632812 286.226562 467.097656 289.078125 462.433594 C 291.097656 459.128906 294.058594 457.246094 298.238281 458.265625 C 296.894531 461.359375 294.847656 463.917969 292.96875 466.871094 Z M 292.96875 466.871094 "/>
<path style=" stroke:none;fill-rule:nonzero;fill:rgb(0%,0%,0%);fill-opacity:1;" d="M 284.5 529.527344 C 274.808594 524.546875 272.714844 514.335938 279.84375 508.074219 C 282.222656 505.980469 284.675781 505.167969 288.316406 505.667969 C 282.339844 507.777344 278.464844 511.5625 278.527344 518.046875 C 278.5625 521.789062 280.675781 524.554688 284.457031 527.171875 C 282.640625 523.789062 279.476562 521.851562 280.011719 518.410156 C 280.515625 515.203125 281.949219 512.507812 285.820312 510.734375 C 280.996094 520.378906 280.996094 520.378906 288.828125 526.609375 C 288.742188 527.738281 287.710938 527.304688 287.0625 527.671875 C 287.550781 528.949219 289.421875 528.300781 289.910156 529.953125 C 288.144531 531.066406 286.460938 529.765625 284.5 529.527344 Z M 284.5 529.527344 "/>
<path style=" stroke:none;fill-rule:nonzero;fill:rgb(0%,0%,0%);fill-opacity:1;" d="M 311.96875 534.710938 C 312.925781 536.03125 315.097656 535.644531 315.816406 537.378906 C 311.195312 538.574219 304.257812 534.617188 300.683594 528.796875 C 296.859375 522.574219 297.464844 515.554688 302.292969 510.140625 C 306.375 505.5625 310.925781 504.175781 316.550781 506.78125 C 306.289062 506.710938 301.667969 512.15625 301.214844 520.441406 C 300.890625 526.363281 304.792969 530.824219 310.332031 533.972656 C 311.121094 534.316406 311.542969 534.511719 311.96875 534.710938 Z M 311.96875 534.710938 "/>
<path style=" stroke:none;fill-rule:nonzero;fill:rgb(0%,0%,0%);fill-opacity:1;" d="M 228.070312 478.386719 C 228.460938 480.53125 230.003906 481.617188 231.890625 482.808594 C 227.90625 483.441406 223.242188 480.972656 221.214844 477.566406 C 219.550781 474.769531 219.164062 471.945312 221.277344 469.183594 C 223.480469 466.3125 226.9375 465.589844 231.777344 467.109375 C 230.871094 468.464844 230.8125 470.082031 228.699219 470.660156 C 227.011719 471.125 226.621094 476.519531 228.070312 478.386719 Z M 228.070312 478.386719 "/>
<path style=" stroke:none;fill-rule:nonzero;fill:rgb(0%,0%,0%);fill-opacity:1;" d="M 349.433594 544.222656 C 352.121094 545.25 350.8125 545.929688 349.371094 546.6875 C 350.503906 547.019531 351.53125 547.324219 352.730469 547.679688 C 350.441406 549.289062 346.796875 548.761719 343.53125 546.558594 C 339.535156 543.859375 336.617188 538.578125 337.628906 535.226562 C 339.007812 530.664062 342.5625 528.410156 347.144531 527.308594 C 344.183594 530.765625 338.242188 532.421875 340.464844 539.542969 C 341.78125 535.960938 342.390625 532.65625 345.945312 530.6875 C 342.144531 536.640625 341.773438 541.503906 349.433594 544.222656 Z M 349.433594 544.222656 "/>
<path style=" stroke:none;fill-rule:nonzero;fill:rgb(0%,0%,0%);fill-opacity:1;" d="M 232.28125 519.097656 C 232.914062 512.308594 243.335938 510.183594 248.058594 514.316406 C 243.277344 515.191406 240.078125 517.976562 237.730469 522.316406 C 238.398438 523.691406 239.386719 525.730469 240.378906 527.777344 C 236.339844 527.652344 233.136719 524.332031 232.28125 519.097656 Z M 232.28125 519.097656 "/>
<path style=" stroke:none;fill-rule:nonzero;fill:rgb(0%,0%,0%);fill-opacity:1;" d="M 253.507812 476.714844 C 255.695312 476.726562 257.542969 476.804688 259.113281 478.695312 C 252.570312 481.089844 248.308594 485.046875 249.199219 492.585938 C 245.476562 490.675781 243.144531 486.570312 243.722656 483.210938 C 244.308594 479.824219 247.636719 477.539062 253.507812 476.714844 Z M 253.507812 476.714844 "/>
<path style=" stroke:none;fill-rule:nonzero;fill:rgb(0%,0%,0%);fill-opacity:1;" d="M 208.710938 470.910156 C 209.652344 473.070312 208.835938 475.386719 210.175781 477.363281 C 206.972656 476.867188 205.152344 474.792969 204.238281 471.921875 C 203.121094 468.410156 204.433594 465.515625 207.1875 463.316406 C 210.207031 460.90625 215.167969 461.097656 219.164062 463.730469 C 215.996094 466.621094 209.765625 464.878906 208.710938 470.910156 Z M 208.710938 470.910156 "/>
<path style=" stroke:none;fill-rule:nonzero;fill:rgb(0%,0%,0%);fill-opacity:1;" d="M 462.988281 496.035156 C 460.773438 498.222656 458.835938 500.449219 455.527344 499.199219 C 452.96875 498.234375 452.359375 496.664062 454.289062 494.441406 C 456.328125 494.632812 457.601562 497 459.847656 496.171875 C 457.167969 491.683594 457.789062 488.429688 461.605469 487.246094 C 463.828125 486.554688 466.015625 486.800781 467.101562 489.0625 C 468.109375 491.164062 467.527344 493.234375 465.535156 494.667969 C 464.835938 495.167969 464.003906 495.492188 462.988281 496.035156 Z M 462.988281 496.035156 "/>
<path style=" stroke:none;fill-rule:nonzero;fill:rgb(0%,0%,0%);fill-opacity:1;" d="M 355.324219 487.507812 C 351.78125 479.308594 350.929688 471.558594 357.074219 464.371094 C 355.804688 468.355469 354.417969 472.339844 354.453125 476.628906 C 355.550781 476.886719 355.226562 474.910156 356.953125 475.769531 C 356.8125 482.035156 358.691406 488.007812 363.507812 492.640625 C 362.03125 494.136719 361.601562 492.132812 360.679688 492.484375 C 361.101562 493.871094 363.113281 494.261719 362.898438 496.460938 C 359.082031 494.449219 357.558594 490.84375 355.324219 487.507812 Z M 355.324219 487.507812 "/>
<path style=" stroke:none;fill-rule:nonzero;fill:rgb(0%,0%,0%);fill-opacity:1;" d="M 169.8125 432.058594 C 172.546875 432.867188 174.019531 434.570312 175.003906 436.769531 C 173.566406 438.269531 170.902344 435.710938 170.199219 438.398438 C 169.652344 440.503906 166.289062 439.902344 166.773438 442.5 C 165.292969 442.796875 165.425781 441.175781 164.292969 440.925781 C 164.785156 442.199219 165.21875 443.3125 165.722656 444.613281 C 162.394531 443.308594 160.957031 440.351562 161.742188 436.867188 C 162.445312 433.742188 165.351562 431.914062 169.8125 432.058594 Z M 169.8125 432.058594 "/>
<path style=" stroke:none;fill-rule:nonzero;fill:rgb(0%,0%,0%);fill-opacity:1;" d="M 155.261719 428.300781 C 154.195312 429.308594 153.941406 428.351562 153.65625 427.765625 C 151.820312 424.027344 153.214844 419.230469 156.660156 417.285156 C 160.339844 415.207031 164.6875 416.539062 167.941406 421.207031 C 163.90625 419.839844 162.355469 425.9375 158.148438 423.453125 C 156.960938 424.527344 158.371094 426.382812 157.054688 427.542969 C 154.894531 426.519531 156.253906 424.371094 155.433594 422.699219 C 154.128906 424.5625 155.0625 426.328125 155.261719 428.300781 Z M 155.261719 428.300781 "/>
<path style=" stroke:none;fill-rule:nonzero;fill:rgb(0%,0%,0%);fill-opacity:1;" d="M 235.355469 461.242188 C 238.460938 458.660156 241.671875 457.65625 245.78125 458.515625 C 243.835938 461.246094 242.34375 463.710938 240.484375 465.863281 C 238.339844 468.347656 240.269531 470.96875 239.8125 473.472656 C 234.003906 471.121094 232.378906 466.925781 235.355469 461.242188 Z M 235.355469 461.242188 "/>
<path style=" stroke:none;fill-rule:nonzero;fill:rgb(0%,0%,0%);fill-opacity:1;" d="M 299.632812 473.015625 C 301.527344 470.941406 302.300781 467.785156 305.308594 466.445312 C 306.179688 466.058594 306.894531 465.238281 308.300781 465.785156 C 306.6875 468.753906 302.222656 469.351562 302.367188 473.390625 C 302.496094 477.035156 306.996094 478.265625 307.027344 481.933594 C 301.777344 481.761719 297.0625 476.296875 297.492188 470.855469 C 297.886719 465.890625 302.949219 462.183594 309.828125 462.996094 C 304.292969 465.101562 299.414062 466.71875 299.632812 473.015625 Z M 299.632812 473.015625 "/>
<path style=" stroke:none;fill-rule:nonzero;fill:rgb(0%,0%,0%);fill-opacity:1;" d="M 166.109375 455.570312 C 166.027344 451.960938 166.847656 449.125 170.4375 447.929688 C 172.117188 447.371094 173.6875 447.597656 174.878906 448.921875 C 176.015625 450.179688 175.308594 451.4375 174.582031 452.65625 C 173.949219 453.71875 173.609375 455.023438 172.789062 455.890625 C 171.636719 457.109375 172.554688 459.953125 170.136719 459.851562 C 167.921875 459.761719 167.132812 457.554688 166.109375 455.570312 Z M 166.109375 455.570312 "/>
<path style=" stroke:none;fill-rule:nonzero;fill:rgb(0%,0%,0%);fill-opacity:1;" d="M 172.480469 425.714844 C 176.136719 419.554688 181.335938 419.765625 185.398438 426.175781 C 184.285156 426.449219 183.238281 426.96875 182.222656 426.914062 C 177.03125 426.636719 177.03125 426.585938 177.121094 431.628906 C 175.910156 431.449219 174.703125 431.566406 174.234375 433.097656 C 171.882812 430.988281 172.175781 428.492188 172.480469 425.714844 Z M 172.480469 425.714844 "/>
<path style=" stroke:none;fill-rule:nonzero;fill:rgb(0%,0%,0%);fill-opacity:1;" d="M 205.695312 452.605469 C 203.464844 449.929688 202.910156 447.238281 204.871094 444.558594 C 206.695312 442.0625 209.371094 441.652344 212.242188 442.398438 C 213.078125 442.613281 213.964844 443.003906 214.113281 443.992188 C 214.253906 444.953125 213.585938 445.59375 212.855469 446.105469 C 209.207031 448.664062 208.785156 449.886719 209.96875 455.011719 C 208.128906 455.03125 207.042969 453.847656 205.695312 452.605469 Z M 205.695312 452.605469 "/>
<path style=" stroke:none;fill-rule:nonzero;fill:rgb(0%,0%,0%);fill-opacity:1;" d="M 266.382812 476.4375 C 266.875 478.125 268.867188 478.34375 269.714844 479.753906 C 266.347656 480.25 263.375 478.496094 261.570312 475.015625 C 259.394531 470.8125 259.820312 466.578125 262.71875 463.636719 C 265.84375 460.464844 271.03125 459.199219 274.597656 460.914062 C 273.078125 461.472656 271.734375 461.964844 270.203125 462.601562 C 270.011719 462.75 270.03125 462.734375 269.757812 462.769531 C 263.195312 464.902344 261.441406 468.421875 264.363281 473.515625 C 265.109375 474.625 265.746094 475.53125 266.382812 476.4375 Z M 266.382812 476.4375 "/>
<path style=" stroke:none;fill-rule:nonzero;fill:rgb(0%,0%,0%);fill-opacity:1;" d="M 238.433594 495.472656 C 241.65625 494.1875 244.578125 493.632812 247.570312 496.089844 C 245.757812 497.152344 244.351562 498.113281 242.429688 498.441406 C 239.261719 498.980469 238.492188 500.84375 239.570312 503.839844 C 240.046875 505.164062 240.179688 506.617188 240.527344 508.304688 C 236.933594 507.910156 235.570312 505.429688 234.792969 502.910156 C 233.816406 499.738281 235.769531 497.464844 238.433594 495.472656 Z M 238.433594 495.472656 "/>
<path style=" stroke:none;fill-rule:nonzero;fill:rgb(0%,0%,0%);fill-opacity:1;" d="M 192.792969 478.339844 C 191.574219 480.097656 192.292969 481.992188 192 483.773438 C 188.199219 481.921875 185.917969 477.03125 187.558594 474.246094 C 189.511719 470.921875 193.855469 470.300781 197.804688 473.019531 C 195.402344 474.140625 195.070312 476.945312 192.792969 478.339844 Z M 192.792969 478.339844 "/>
<path style=" stroke:none;fill-rule:nonzero;fill:rgb(0%,0%,0%);fill-opacity:1;" d="M 187.863281 437.355469 C 191.664062 435.738281 195.015625 435.644531 198.597656 438.820312 C 195.980469 438.941406 194.21875 439.902344 192.449219 440.796875 C 190.285156 441.894531 189.433594 443.652344 190.6875 446.238281 C 188.324219 445.476562 188.5 446.800781 188.652344 448.078125 C 184.324219 445.625 183.929688 441.375 187.863281 437.355469 Z M 187.863281 437.355469 "/>
<path style=" stroke:none;fill-rule:nonzero;fill:rgb(0%,0%,0%);fill-opacity:1;" d="M 156.835938 388.90625 C 160.066406 388.132812 163.035156 387.421875 166.089844 390.855469 C 163.742188 390.511719 162.316406 390.300781 160.519531 390.039062 C 161.828125 391.25 161.878906 391.953125 160.320312 392.554688 C 156.652344 393.964844 155.1875 396.394531 157.390625 400.210938 C 156.28125 400.582031 155.324219 400.902344 154.398438 401.214844 C 151.039062 396.019531 151.65625 392.683594 156.835938 388.90625 Z M 156.835938 388.90625 "/>
<path style=" stroke:none;fill-rule:nonzero;fill:rgb(0%,0%,0%);fill-opacity:1;" d="M 191.59375 465.183594 C 189.210938 462.367188 188.6875 459.679688 191.226562 456.984375 C 193.429688 454.648438 196.4375 454.527344 200.183594 456.667969 C 198.945312 458.191406 196.578125 457.996094 195.789062 460.585938 C 195.082031 462.914062 194.714844 464.898438 195.429688 467.195312 C 193.597656 467.46875 192.835938 466.148438 191.59375 465.183594 Z M 191.59375 465.183594 "/>
<path style=" stroke:none;fill-rule:nonzero;fill:rgb(0%,0%,0%);fill-opacity:1;" d="M 156.289062 410.484375 C 155.265625 411.8125 153.816406 412.605469 153.515625 414.414062 C 151.105469 412.667969 153.019531 410.867188 152.960938 408.808594 C 150.773438 411.574219 152.175781 414.472656 151.96875 417.3125 C 149.011719 414.289062 149.289062 408.734375 152.3125 405.910156 C 155.355469 403.066406 159.601562 403.421875 162.503906 407.058594 C 159.882812 407.070312 157.699219 407.988281 155.734375 409.25 C 154.128906 410.277344 156.25 409.867188 156.289062 410.484375 Z M 156.289062 410.484375 "/>
<path style=" stroke:none;fill-rule:nonzero;fill:rgb(0%,0%,0%);fill-opacity:1;" d="M 312.089844 484.4375 C 310.171875 485.53125 308.082031 485.53125 306.417969 486.816406 C 303.917969 488.738281 301.914062 490.851562 302.46875 494.304688 C 303.003906 497.632812 304.917969 499.949219 307.949219 501.378906 C 308.8125 501.789062 309.964844 501.582031 310.714844 502.824219 C 309.582031 503.828125 308.230469 503.640625 306.992188 503.339844 C 302.808594 502.316406 298.988281 495.578125 300.113281 491.351562 C 301.347656 486.726562 307.585938 482.625 311.886719 483.636719 C 312.039062 483.671875 312.121094 484.03125 312.089844 484.4375 Z M 312.089844 484.4375 "/>
<path style=" stroke:none;fill-rule:nonzero;fill:rgb(0%,0%,0%);fill-opacity:1;" d="M 322.679688 552.257812 C 321.027344 552.160156 319.632812 552.433594 318.210938 551.28125 C 319.679688 549.71875 321.390625 550.476562 323.046875 550.132812 C 322.277344 549.558594 321.160156 549.695312 320.78125 548.78125 C 323.019531 544.980469 323.25 544.96875 329.394531 548.371094 C 329.941406 549.3125 328.367188 549.328125 328.605469 550.121094 C 330.535156 550.609375 332.601562 549.65625 335.035156 551.136719 C 330.828125 553.082031 326.839844 551.949219 322.679688 552.257812 Z M 322.679688 552.257812 "/>
<path style=" stroke:none;fill-rule:nonzero;fill:rgb(0%,0%,0%);fill-opacity:1;" d="M 184.671875 464.84375 C 185.316406 465.191406 186.023438 465.738281 186.011719 465.757812 C 184.289062 468.117188 184.785156 471.175781 183.519531 473.644531 C 182.992188 474.671875 182.261719 473.785156 181.601562 473.53125 C 181.167969 474.605469 183.128906 475.277344 181.90625 476.640625 C 179.496094 474.472656 177.71875 472 178.539062 468.667969 C 179.238281 465.832031 181.273438 464.3125 184.671875 464.84375 Z M 184.671875 464.84375 "/>
<path style=" stroke:none;fill-rule:nonzero;fill:rgb(0%,0%,0%);fill-opacity:1;" d="M 231.132812 490.117188 C 225.550781 492.507812 224.878906 494.300781 227.875 498.230469 C 225.296875 498.25 224.207031 497.566406 223.210938 495.394531 C 222.144531 493.074219 222.574219 490.890625 224.324219 489.242188 C 226.8125 486.894531 229.824219 486.210938 233.140625 487.273438 C 233.347656 488.949219 232.34375 489.472656 231.132812 490.117188 Z M 231.132812 490.117188 "/>
<path style=" stroke:none;fill-rule:nonzero;fill:rgb(0%,0%,0%);fill-opacity:1;" d="M 312.230469 534.734375 C 311.542969 534.511719 311.121094 534.316406 310.578125 534.039062 C 306.339844 530.214844 302.433594 526.394531 303.457031 520.019531 C 304.328125 514.636719 309.542969 509.453125 315.355469 509.214844 C 310.355469 512.628906 304.6875 515.28125 304.976562 521.480469 C 305.246094 527.25 308.605469 531.695312 314.421875 533.296875 C 314.328125 535.21875 313.285156 534.746094 312.230469 534.734375 Z M 312.230469 534.734375 "/>
<path style=" stroke:none;fill-rule:nonzero;fill:rgb(0%,0%,0%);fill-opacity:1;" d="M 164.441406 415.847656 C 162.476562 410.171875 166.4375 406.335938 173.566406 407.4375 C 171.144531 411.183594 169.136719 414.804688 164.441406 415.847656 Z M 164.441406 415.847656 "/>
<path style=" stroke:none;fill-rule:nonzero;fill:rgb(0%,0%,0%);fill-opacity:1;" d="M 223.933594 449.371094 C 224.796875 449.179688 225.945312 448.507812 225.519531 450.214844 C 225.171875 451.617188 224.488281 452.9375 224.667969 454.480469 C 220.578125 453.492188 218.753906 451.386719 219.363281 448.535156 C 220.015625 445.472656 222.171875 444.328125 225.945312 445.066406 C 227.15625 447.402344 224.304688 447.742188 223.933594 449.371094 Z M 223.933594 449.371094 "/>
<path style=" stroke:none;fill-rule:nonzero;fill:rgb(0%,0%,0%);fill-opacity:1;" d="M 145.316406 387.300781 C 147.4375 382.351562 149.222656 381.59375 153.269531 383.738281 C 152.988281 386.65625 147.222656 386.644531 149.609375 390.5 C 148.558594 391.816406 148.164062 390.195312 147.507812 390.542969 C 146.847656 391.574219 148.3125 392.683594 147.164062 393.894531 C 145.105469 392.179688 145.242188 389.878906 145.316406 387.300781 Z M 145.316406 387.300781 "/>
<path style=" stroke:none;fill-rule:nonzero;fill:rgb(0%,0%,0%);fill-opacity:1;" d="M 332.992188 558.765625 C 333.886719 558.558594 334.789062 557.960938 335.976562 558.839844 C 334.214844 561.492188 330.351562 561.871094 329.410156 565.105469 C 331.652344 567.164062 334.441406 568.671875 335.644531 572.007812 C 332.285156 572.515625 330.179688 571.125 328.699219 568.605469 C 327.25 566.140625 327.621094 563.828125 329.644531 561.832031 C 330.617188 560.875 331.6875 560.023438 332.871094 558.929688 C 333.035156 558.730469 333.003906 558.753906 332.992188 558.765625 Z M 332.992188 558.765625 "/>
<path style=" stroke:none;fill-rule:nonzero;fill:rgb(0%,0%,0%);fill-opacity:1;" d="M 343.738281 454.75 C 339.644531 460.390625 337.996094 466.695312 337 474.144531 C 334.085938 467.03125 341.679688 450.890625 348.488281 448.957031 C 346.722656 451.089844 345.304688 452.808594 343.738281 454.75 Z M 343.738281 454.75 "/>
<path style=" stroke:none;fill-rule:nonzero;fill:rgb(0%,0%,0%);fill-opacity:1;" d="M 290.300781 483.894531 C 286.976562 489.117188 287.164062 490.109375 292.773438 498.132812 C 289.320312 497.777344 286.351562 493.742188 286.296875 489.332031 C 286.238281 484.808594 290.3125 479.757812 294.589844 479.339844 C 293.65625 481.347656 291.570312 482.070312 290.300781 483.894531 Z M 290.300781 483.894531 "/>
<path style=" stroke:none;fill-rule:nonzero;fill:rgb(0%,0%,0%);fill-opacity:1;" d="M 460.480469 474.699219 C 461.292969 475.921875 460.398438 475.910156 459.867188 475.707031 C 453.414062 473.269531 447.496094 469.800781 441.726562 465.992188 C 448.226562 468.214844 454.429688 471.054688 460.480469 474.699219 Z M 460.480469 474.699219 "/>
<path style=" stroke:none;fill-rule:nonzero;fill:rgb(0%,0%,0%);fill-opacity:1;" d="M 180.144531 455.570312 C 177.34375 450.738281 178.214844 448.484375 182.828125 447.921875 C 185.007812 450.984375 182.25 454.015625 183.058594 457.042969 C 181.609375 457.292969 181.039062 456.390625 180.144531 455.570312 Z M 180.144531 455.570312 "/>
<path style=" stroke:none;fill-rule:nonzero;fill:rgb(0%,0%,0%);fill-opacity:1;" d="M 382.230469 447.714844 C 382.519531 448.546875 381.992188 448.695312 381.53125 448.800781 C 374.683594 450.417969 368.367188 453.234375 362.375 456.839844 C 367.808594 451.441406 374.203125 448.011719 382.230469 447.714844 Z M 382.230469 447.714844 "/>
<path style=" stroke:none;fill-rule:nonzero;fill:rgb(0%,0%,0%);fill-opacity:1;" d="M 352.214844 569.742188 C 356.089844 565.726562 359.277344 561.371094 363.738281 558.351562 C 363.984375 558.578125 364.230469 558.804688 364.476562 559.03125 C 359.746094 564.160156 355.015625 569.285156 349.882812 574.855469 C 349.386719 572.152344 351.144531 571.253906 352.214844 569.742188 Z M 352.214844 569.742188 "/>
<path style=" stroke:none;fill-rule:nonzero;fill:rgb(0%,0%,0%);fill-opacity:1;" d="M 402.632812 498.023438 C 407.652344 499.226562 411.996094 496.738281 417.15625 496.144531 C 412.386719 500.617188 401.441406 501.054688 396.472656 497.269531 C 398.6875 496.601562 400.441406 498.089844 402.632812 498.023438 Z M 402.632812 498.023438 "/>
<path style=" stroke:none;fill-rule:nonzero;fill:rgb(0%,0%,0%);fill-opacity:1;" d="M 266.613281 476.359375 C 265.746094 475.53125 265.109375 474.625 264.265625 473.203125 C 263.078125 467.589844 266.347656 465.035156 270.03125 462.734375 C 270.03125 462.734375 270.011719 462.75 270 462.757812 C 271.046875 462.757812 272.199219 462.359375 273.054688 463.386719 C 272.613281 464.949219 271.191406 464.605469 270.28125 465.039062 C 266.054688 467.058594 264.996094 469.761719 266.960938 474.050781 C 267.324219 474.839844 267.953125 475.59375 266.613281 476.359375 Z M 266.613281 476.359375 "/>
<path style=" stroke:none;fill-rule:nonzero;fill:rgb(0%,0%,0%);fill-opacity:1;" d="M 304.476562 492.753906 C 306.03125 489.304688 308.5625 487.445312 311.957031 486.609375 C 310.816406 489.238281 307.84375 490.066406 306.414062 492.429688 C 304.316406 495.902344 308.113281 497.367188 308.859375 499.890625 C 305.316406 499.855469 304.042969 497.851562 304.476562 492.753906 Z M 304.476562 492.753906 "/>
<path style=" stroke:none;fill-rule:nonzero;fill:rgb(0%,0%,0%);fill-opacity:1;" d="M 331.644531 518.863281 C 334.046875 520.972656 336.265625 522.894531 338.65625 524.972656 C 334.65625 525.03125 325.972656 516.882812 324.898438 511.558594 C 327.085938 513.929688 329.269531 516.300781 331.644531 518.863281 Z M 331.644531 518.863281 "/>
<path style=" stroke:none;fill-rule:nonzero;fill:rgb(0%,0%,0%);fill-opacity:1;" d="M 306 547.851562 C 309.6875 546.195312 312.910156 547.410156 315.496094 551.445312 C 313.027344 552.011719 310.710938 552.167969 309.1875 549.941406 C 308.351562 548.722656 307.03125 548.828125 306 547.851562 Z M 306 547.851562 "/>
<path style=" stroke:none;fill-rule:nonzero;fill:rgb(0%,0%,0%);fill-opacity:1;" d="M 150.863281 356.875 C 151.226562 358.992188 151.550781 360.792969 151.875 362.597656 C 148.371094 358.101562 148.734375 352.960938 149.632812 347.722656 C 150.027344 350.667969 150.425781 353.617188 150.863281 356.875 Z M 150.863281 356.875 "/>
<path style=" stroke:none;fill-rule:nonzero;fill:rgb(0%,0%,0%);fill-opacity:1;" d="M 306.773438 521.652344 C 307.550781 519.511719 308.140625 517.578125 310.742188 516.703125 C 310.425781 519.269531 308.15625 520.796875 308.351562 523.320312 C 308.535156 525.75 310.417969 527.25 311.042969 529.425781 C 307.925781 528.875 306.550781 526.453125 306.773438 521.652344 Z M 306.773438 521.652344 "/>
<path style=" stroke:none;fill-rule:nonzero;fill:rgb(0%,0%,0%);fill-opacity:1;" d="M 471.9375 481.722656 C 477.574219 484.003906 479.65625 488.480469 480.453125 493.875 C 479.121094 488.042969 474.453125 485.039062 470.023438 481.964844 C 470.6875 480.847656 471.21875 481.433594 471.9375 481.722656 Z M 471.9375 481.722656 "/>
<path style=" stroke:none;fill-rule:nonzero;fill:rgb(0%,0%,0%);fill-opacity:1;" d="M 378.742188 566.273438 C 379.0625 565.925781 379.367188 565.535156 379.726562 565.203125 C 380.660156 564.34375 381.015625 561.980469 382.964844 563.546875 C 384.613281 564.871094 383.035156 566.230469 382.453125 567.460938 C 381.769531 568.90625 379.632812 568.777344 379.214844 570.617188 C 377.585938 569.335938 378.667969 567.992188 378.726562 566.496094 C 378.773438 566.230469 378.75 566.257812 378.742188 566.273438 Z M 378.742188 566.273438 "/>
<path style=" stroke:none;fill-rule:nonzero;fill:rgb(0%,0%,0%);fill-opacity:1;" d="M 357.148438 571.96875 C 355.402344 572.613281 355.523438 571.570312 355.976562 570.765625 C 357.84375 567.445312 359.992188 564.339844 363.144531 562.15625 C 363.414062 562.359375 363.683594 562.558594 363.953125 562.757812 C 361.738281 565.773438 359.519531 568.785156 357.148438 571.96875 Z M 357.148438 571.96875 "/>
<path style=" stroke:none;fill-rule:nonzero;fill:rgb(0%,0%,0%);fill-opacity:1;" d="M 379.289062 504.207031 C 375.175781 503.65625 371.683594 502.394531 368.921875 499.347656 C 373.039062 500.386719 376.730469 502.851562 381.007812 502.496094 C 381.171875 504.246094 380.269531 504.085938 379.289062 504.207031 Z M 379.289062 504.207031 "/>
<path style=" stroke:none;fill-rule:nonzero;fill:rgb(0%,0%,0%);fill-opacity:1;" d="M 329.011719 526.730469 C 330.566406 528.027344 332.640625 528.214844 334.089844 530.867188 C 329.253906 529.292969 325.871094 527.296875 323.515625 523.703125 C 325.734375 523.855469 327.015625 525.660156 329.011719 526.730469 Z M 329.011719 526.730469 "/>
<path style=" stroke:none;fill-rule:nonzero;fill:rgb(0%,0%,0%);fill-opacity:1;" d="M 157.675781 280.589844 C 155.964844 280.910156 155.710938 282.796875 153.652344 283.222656 C 154.503906 279.964844 156.042969 277.597656 158.769531 274.617188 C 158.542969 277.308594 158.78125 278.945312 157.675781 280.589844 Z M 157.675781 280.589844 "/>
<path style=" stroke:none;fill-rule:nonzero;fill:rgb(0%,0%,0%);fill-opacity:1;" d="M 327.417969 535.023438 C 328.839844 535.671875 330.253906 535.875 331.34375 538.039062 C 327.753906 537.394531 325.214844 536.175781 322.425781 534.269531 C 324.542969 533.140625 325.757812 534.6875 327.417969 535.023438 Z M 327.417969 535.023438 "/>
<path style=" stroke:none;fill-rule:nonzero;fill:rgb(0%,0%,0%);fill-opacity:1;" d="M 350.664062 496.042969 C 351.457031 497.410156 352.640625 498.277344 352.785156 499.824219 C 349.820312 498.78125 347.9375 496.039062 347.578125 492.246094 C 349.488281 492.773438 349.664062 494.597656 350.664062 496.042969 Z M 350.664062 496.042969 "/>
<path style=" stroke:none;fill-rule:nonzero;fill:rgb(0%,0%,0%);fill-opacity:1;" d="M 290.703125 488.210938 C 291.359375 486.402344 292.054688 484.972656 294.355469 484.441406 C 293.332031 487.269531 291.464844 489.5 291.707031 492.683594 C 289.640625 491.335938 290.261719 489.890625 290.703125 488.210938 Z M 290.703125 488.210938 "/>
<path style=" stroke:none;fill-rule:nonzero;fill:rgb(0%,0%,0%);fill-opacity:1;" d="M 309.546875 493.253906 C 309 494.460938 309.726562 495.707031 308.792969 496.605469 C 306.246094 494.195312 306.652344 492.546875 310.296875 490.554688 C 311.265625 491.695312 309.867188 492.222656 309.546875 493.253906 Z M 309.546875 493.253906 "/>
<path style=" stroke:none;fill-rule:nonzero;fill:rgb(0%,0%,0%);fill-opacity:1;" d="M 407.121094 502.433594 C 404.613281 504.1875 402.414062 502.796875 400.15625 501.734375 C 402.507812 501.214844 404.839844 501.089844 407.121094 502.433594 Z M 407.121094 502.433594 "/>
<path style=" stroke:none;fill-rule:nonzero;fill:rgb(0%,0%,0%);fill-opacity:1;" d="M 266.921875 493.148438 C 267.453125 492.535156 267.726562 491.878906 268.773438 492.222656 C 268.199219 494.011719 268.203125 495.890625 268.605469 498.347656 C 266.082031 496.851562 266.234375 495.171875 266.921875 493.148438 Z M 266.921875 493.148438 "/>
<path style=" stroke:none;fill-rule:nonzero;fill:rgb(0%,0%,0%);fill-opacity:1;" d="M 193.777344 512.679688 C 195.53125 513.921875 197.871094 513.757812 198.59375 516.128906 C 188.425781 512.824219 179.074219 508.113281 171.636719 500.042969 C 178.78125 504.488281 185.804688 509.152344 193.777344 512.679688 Z M 193.777344 512.679688 "/>
<path style=" stroke:none;fill-rule:nonzero;fill:rgb(0%,0%,0%);fill-opacity:1;" d="M 164.703125 494.613281 C 163.964844 493.679688 162.914062 493.179688 163.398438 491.339844 C 166.207031 493.117188 168.328125 495.195312 170.699219 498.382812 C 167.59375 497.90625 166.441406 496.019531 164.703125 494.613281 Z M 164.703125 494.613281 "/>
<path style=" stroke:none;fill-rule:nonzero;fill:rgb(0%,0%,0%);fill-opacity:1;" d="M 144.75 479.246094 C 144.222656 480.023438 143.523438 480.722656 142.640625 479.933594 C 138.324219 476.097656 134.796875 471.648438 132.402344 466.335938 C 136.820312 470.203125 139.710938 475.4375 144.546875 479.183594 C 144.777344 479.285156 144.757812 479.257812 144.75 479.246094 Z M 144.75 479.246094 "/>
<path style=" stroke:none;fill-rule:nonzero;fill:rgb(0%,0%,0%);fill-opacity:1;" d="M 171.023438 239.984375 C 164.546875 244.390625 160.578125 250.898438 156.472656 257.292969 C 155.628906 258.605469 155.226562 260.273438 153.1875 261.261719 C 154.007812 257.417969 156.066406 254.644531 157.972656 251.832031 C 162.191406 245.601562 167.4375 240.214844 172.394531 234.601562 C 176.808594 229.605469 180.605469 224.234375 183.167969 218.027344 C 183.652344 216.855469 183.898438 215.3125 185.558594 214.890625 C 186.523438 216.273438 185.402344 217.265625 184.929688 218.300781 C 181.949219 224.820312 177.984375 230.710938 173.308594 236.132812 C 172.425781 237.164062 171.269531 238.019531 171.019531 239.746094 C 171.003906 240 171.023438 239.984375 171.023438 239.984375 Z M 171.023438 239.984375 "/>
<path style=" stroke:none;fill-rule:nonzero;fill:rgb(0%,0%,0%);fill-opacity:1;" d="M 170.996094 240.011719 C 172.703125 238.898438 173.273438 236.539062 175.625 236.039062 C 172.441406 241.875 168.179688 246.753906 163.183594 250.996094 C 162.875 250.742188 162.570312 250.488281 162.261719 250.230469 C 165.089844 246.957031 167.917969 243.679688 170.882812 240.195312 C 171.023438 239.984375 171.003906 240 170.996094 240.011719 Z M 170.996094 240.011719 "/>
<path style=" stroke:none;fill-rule:nonzero;fill:rgb(0%,0%,0%);fill-opacity:1;" d="M 148.003906 270.367188 C 148.753906 269.285156 148.789062 267.988281 150.035156 267.582031 C 150.636719 270.347656 149.273438 273.554688 146.644531 275.34375 C 145.796875 273.371094 147.457031 272.128906 148.003906 270.367188 Z M 148.003906 270.367188 "/>
<path style=" stroke:none;fill-rule:nonzero;fill:rgb(0%,0%,0%);fill-opacity:1;" d="M 140.316406 442.191406 C 140.578125 442.84375 140.71875 443.289062 140.90625 443.882812 C 137.464844 442.289062 127.714844 425.921875 126.964844 419.945312 C 131.691406 427.816406 135.945312 434.898438 140.316406 442.191406 Z M 140.316406 442.191406 "/>
<path style=" stroke:none;fill-rule:nonzero;fill:rgb(0%,0%,0%);fill-opacity:1;" d="M 146.554688 434.597656 C 145.6875 432.488281 144.113281 430.867188 144.664062 427.582031 C 147.546875 432.726562 149.980469 437.058594 152.609375 441.742188 C 149.6875 440.695312 149.6875 440.695312 146.554688 434.597656 Z M 146.554688 434.597656 "/>
<path style=" stroke:none;fill-rule:nonzero;fill:rgb(0%,0%,0%);fill-opacity:1;" d="M 399.65625 472.484375 C 405.820312 468.929688 411.777344 469.679688 414.984375 474.175781 C 416.03125 475.648438 416.789062 477.253906 416.292969 479.066406 C 415.332031 482.570312 412.472656 483.871094 409.296875 484.425781 C 405.3125 485.125 401.804688 483.949219 399.4375 480.574219 C 397.683594 478.078125 397.128906 475.3125 399.65625 472.484375 Z M 399.65625 472.484375 "/>
<path style=" stroke:none;fill-rule:nonzero;fill:rgb(0%,0%,0%);fill-opacity:1;" d="M 410.257812 491.878906 C 403.800781 493.945312 397.332031 491.800781 395.492188 487.046875 C 397.238281 487.054688 398.050781 488.511719 399.265625 489.175781 C 402.074219 490.707031 405.03125 491.273438 408.214844 491.011719 C 408.941406 490.949219 410.21875 489.90625 410.257812 491.878906 Z M 410.257812 491.878906 "/>
</g>
</svg>
