<svg version="1.1" id="Layer_1" xmlns="http://www.w3.org/2000/svg" xmlns:xlink="http://www.w3.org/1999/xlink" x="0px" y="0px"
	 width="100%" viewBox="0 0 992 992" enable-background="new 0 0 992 992" xml:space="preserve">
<path fill="#000000" opacity="1.000000" stroke="none" 
	d="
M897.166504,527.808289 
	C894.305542,563.457520 887.356750,597.780457 875.617920,631.091309 
	C857.085510,683.680054 828.744446,730.317810 790.744385,771.130188 
	C747.847961,817.201294 696.830566,851.112610 637.938904,873.138733 
	C607.414612,884.555115 575.912354,892.022278 543.447571,895.451416 
	C448.469330,905.483704 360.567780,885.072815 280.662170,832.847473 
	C208.756195,785.850586 157.439606,721.679626 126.301331,641.528076 
	C113.446129,608.438171 104.992363,574.180542 101.966064,538.855774 
	C91.732841,419.407776 126.328835,314.689331 207.815689,226.491623 
	C267.768372,161.601547 342.162292,122.017357 428.993347,106.041649 
	C461.545410,100.052528 494.441803,98.266685 527.486084,100.817940 
	C575.563965,104.529869 621.707642,115.999390 665.586670,136.113220 
	C722.647217,162.269363 770.726746,200.160248 810.047424,248.904816 
	C848.939819,297.118408 875.161560,351.614655 888.581970,412.231873 
	C895.637634,444.101074 898.603027,476.313782 898.157532,508.886108 
	C898.073425,515.039978 897.523621,521.187500 897.166504,527.808289 
M405.917328,784.694458 
	C410.794769,782.329712 415.672241,779.964966 421.831146,776.978943 
	C414.668304,776.160156 408.931244,774.315186 403.488586,778.388184 
	C399.247833,781.561829 394.766235,784.420715 390.600464,787.685852 
	C384.740540,792.278931 379.073914,797.118713 373.324646,801.853027 
	C382.692719,799.342773 391.074554,795.221985 398.651123,788.647278 
	C401.370972,788.280273 402.866882,785.789917 405.917328,784.694458 
M193.012421,639.012878 
	C193.012421,639.012878 193.035599,639.045410 192.772751,638.408875 
	C185.260818,628.330688 177.748871,618.252563 170.149796,608.057434 
	C168.469849,609.831482 169.924911,612.656372 167.278122,613.321289 
	C164.884140,612.879883 163.990555,610.210510 161.218323,609.323059 
	C165.537994,619.922119 171.821335,628.964478 176.602905,638.754822 
	C181.975067,649.754578 191.542435,656.504089 200.267319,664.190613 
	C200.743515,664.610168 201.456772,664.760620 202.473358,665.446716 
	C203.028641,666.004028 203.583923,666.561401 204.583420,667.580566 
	C210.894257,672.477295 218.486176,675.624329 224.276627,681.270203 
	C221.008896,682.012146 219.240952,679.092102 215.044464,678.757080 
	C220.164124,681.854431 224.047363,684.392334 228.101028,686.620056 
	C239.106644,692.668213 250.855194,696.716858 262.856079,700.431274 
	C272.363312,703.373718 281.479797,707.567871 291.410278,709.237549 
	C292.463440,709.414612 294.129944,709.124634 294.721649,711.057434 
	C290.942139,713.085693 287.508575,710.861328 284.076141,710.274170 
	C280.621460,709.683167 277.273560,708.467712 273.878876,707.525879 
	C291.699158,714.527466 310.357056,717.492004 329.233765,719.500732 
	C315.734985,708.404602 299.968262,702.401062 283.429535,698.331299 
	C270.816528,695.227539 257.892639,693.051880 246.633286,686.138062 
	C227.523453,674.403748 209.524719,661.300598 196.271805,642.725403 
	C195.312668,641.381042 194.091125,640.223938 193.012421,639.012878 
M177.217758,611.705994 
	C192.070206,632.126953 205.901550,653.419983 226.711288,668.684937 
	C237.707962,676.751465 248.402740,685.259460 261.478210,689.927856 
	C272.817505,693.976257 284.859161,695.029175 296.398621,698.215088 
	C296.532257,698.251953 296.798706,697.808044 297.296814,697.273376 
	C290.786987,691.876099 284.031677,686.770569 277.859924,681.036865 
	C269.573914,673.338928 260.298737,667.430420 249.931839,662.998962 
	C243.338409,660.180420 237.185898,656.496338 231.678970,651.817810 
	C217.399841,639.686584 205.245682,625.556030 193.350266,611.178101 
	C182.801468,598.427795 173.112381,585.071350 166.822021,569.666443 
	C161.474762,556.571228 157.971848,542.804626 153.259232,529.481812 
	C148.556641,516.187317 145.404587,502.834503 145.351944,488.606659 
	C145.327225,481.924652 145.217941,475.022186 143.353088,468.391205 
	C143.032532,471.396027 143.361343,474.429077 142.981415,477.370605 
	C139.371613,505.319519 146.012085,531.527283 156.350357,557.117859 
	C156.698639,557.979980 157.649734,558.579285 158.126358,559.411865 
	C162.016068,566.206604 163.442947,573.599976 163.498947,581.339417 
	C160.789215,578.387695 161.472137,574.214233 159.403473,571.050964 
	C160.148438,580.115662 160.541443,589.268555 167.216110,597.347290 
	C170.485886,601.914185 173.755646,606.481079 177.217758,611.705994 
M443.328094,745.122681 
	C438.810669,746.143188 435.781219,748.943115 434.999451,753.420410 
	C433.551147,761.715149 440.923828,763.110535 446.502319,766.296021 
	C441.384125,767.309509 435.333954,764.795776 433.200775,760.716309 
	C429.682587,753.988159 431.904266,748.357422 438.384644,743.196289 
	C401.974670,744.647827 366.744843,749.189819 331.557739,742.310120 
	C344.957397,753.547729 360.454224,759.836731 377.263763,766.389526 
	C369.683990,755.759094 369.411652,751.402283 375.384308,748.755127 
	C373.361145,756.288330 373.830902,758.107910 378.751984,761.799683 
	C374.083466,754.432678 374.418091,752.211975 380.424988,750.303406 
	C380.816010,754.930359 382.667969,758.880676 385.850342,762.264282 
	C387.537445,764.057922 389.649902,765.906128 386.053955,768.415466 
	C391.956512,770.052490 397.663269,771.089539 404.172638,771.654907 
	C396.267548,762.414124 395.549622,759.339355 399.561218,753.810913 
	C403.566895,748.290710 412.622681,745.986877 420.123413,748.914307 
	C416.890198,750.618652 413.653748,749.883850 410.676453,750.455444 
	C402.731750,751.980713 399.057159,757.791626 402.541229,764.501770 
	C404.327667,766.527405 406.450806,768.069580 409.633057,769.328308 
	C415.539398,773.975952 422.467041,773.047485 429.167145,772.621460 
	C438.478333,772.029480 447.550659,769.859802 456.589905,767.620117 
	C458.396179,767.172485 459.415558,765.985046 460.164490,764.428772 
	C465.364563,753.622986 474.037231,745.871216 483.080658,738.464905 
	C484.609375,737.212952 486.133240,735.463074 489.839508,736.937012 
	C477.153046,745.433228 467.665344,755.658752 461.475739,768.906616 
	C466.472473,770.408142 478.946320,769.802856 487.229431,768.331299 
	C492.234528,767.442078 495.717896,765.207275 497.895416,760.497437 
	C499.419739,757.200439 501.585541,754.187317 503.600952,751.137329 
	C504.243622,750.164795 505.025208,748.687195 506.887024,750.022644 
	C506.252045,751.693237 505.613525,753.373230 505.001465,755.012512 
	C505.001465,755.012512 505.033539,754.976135 504.555847,755.462769 
	C502.242493,758.243774 499.844238,760.992493 500.804260,765.995117 
	C546.779114,751.087524 588.366577,729.897888 621.833618,693.911255 
	C619.358521,692.326721 617.490295,691.130676 615.934143,690.134399 
	C613.535889,691.241638 615.146301,693.888000 613.251953,694.937866 
	C611.139404,689.863770 612.322388,685.913940 616.587708,683.225586 
	C619.156982,681.606140 626.777588,683.502014 629.956543,686.790588 
	C634.456116,683.906006 637.855042,679.880066 640.775940,675.447205 
	C646.805054,666.296875 646.390869,652.101807 635.023743,643.495850 
	C624.749512,635.717224 613.890137,629.048523 602.714722,622.808777 
	C575.509644,607.618713 547.335632,595.066345 515.860107,591.805542 
	C514.544434,591.669250 512.837524,590.959717 511.971405,591.525452 
	C505.486450,595.761292 497.713104,596.710083 490.899323,600.126160 
	C477.395905,606.896057 469.668030,617.642090 468.475861,632.611267 
	C466.762543,654.124146 485.909271,674.540039 507.474670,674.674866 
	C510.812286,674.695740 514.150146,674.677734 518.386353,674.677734 
	C516.117981,677.034912 514.257629,677.038818 512.508484,677.172607 
	C503.308960,677.876038 494.608643,676.305603 486.606934,671.461548 
	C485.458374,670.766174 484.015625,668.839783 482.829681,670.181152 
	C480.916260,672.345337 479.848755,670.700134 478.726257,669.771423 
	C470.376495,662.863892 465.016754,654.073303 462.205139,643.614197 
	C461.446075,640.790405 462.811554,640.438232 464.801056,640.664368 
	C464.801056,638.841797 464.731201,637.339417 464.811859,635.845215 
	C465.627045,620.742554 470.163422,607.800293 484.757599,600.343079 
	C490.097351,597.614624 495.316437,594.680298 500.970703,592.622498 
	C502.141968,592.196228 503.663483,592.098999 503.902222,589.824463 
	C496.008179,587.275940 487.855652,586.364990 479.544769,586.510620 
	C477.917938,586.539124 476.246216,587.628662 475.861725,588.772705 
	C474.741302,592.105896 471.918152,592.375305 469.332184,593.302185 
	C457.449188,597.561279 449.936676,605.753296 447.050842,618.119690 
	C446.719757,619.538452 446.851166,621.381592 444.984344,621.978027 
	C443.200623,620.343140 445.486237,618.439209 444.217285,616.841919 
	C437.831146,634.974548 440.470581,656.960144 450.703522,667.934509 
	C447.768097,660.314087 444.464508,653.346619 446.599396,645.535156 
	C448.896667,649.586731 447.765442,654.289185 449.494629,658.497803 
	C451.520569,663.428711 453.398468,666.844788 456.291199,669.315735 
	C449.429047,655.068359 447.699585,643.558655 452.046295,639.018494 
	C452.155212,640.231995 452.344696,641.198486 452.312653,642.157715 
	C451.859558,655.714355 456.020508,667.373047 466.346222,676.526428 
	C466.840271,676.964355 467.683258,677.579468 467.616821,677.991699 
	C466.835876,682.838989 471.101349,683.247742 473.755157,684.874207 
	C475.858429,686.163269 478.341644,686.819519 480.615082,687.847656 
	C482.912048,688.886475 485.725433,688.902649 487.967773,691.265259 
	C484.388641,693.228210 481.632050,690.161804 478.246552,690.598022 
	C483.210541,694.094727 489.052002,693.905945 493.980621,696.281128 
	C491.310852,697.872681 488.797791,697.325378 486.200470,696.818909 
	C472.265320,694.101746 461.136505,686.441711 450.800568,676.351257 
	C450.268738,675.319031 449.851105,674.206238 449.188019,673.266663 
	C439.072357,658.933777 435.911926,643.140869 438.584747,625.871582 
	C440.820679,611.425110 445.703918,598.838562 459.525696,591.565796 
	C460.160034,591.231995 461.091034,590.856445 460.416962,589.154114 
	C453.274750,591.536926 444.834106,592.186218 439.911041,598.153381 
	C433.984222,605.337097 428.058136,613.110229 426.860535,623.003967 
	C425.868378,631.200623 425.561584,639.358337 429.476807,647.030334 
	C429.782196,638.552246 429.570923,630.088318 430.776489,621.703735 
	C432.092987,612.547485 437.473877,602.699219 442.294342,600.314270 
	C442.325470,600.465149 442.431091,600.654785 442.375946,600.760803 
	C441.919556,601.637756 441.465515,602.518799 440.951355,603.362427 
	C434.121552,614.568604 430.038116,626.378296 432.015747,639.816589 
	C432.593933,643.745422 434.669617,648.671326 433.294556,651.408325 
	C431.170807,655.635498 433.428467,657.640259 434.839600,660.309387 
	C436.540894,663.527344 438.640533,666.534607 440.787811,669.987000 
	C441.618530,669.197021 440.877319,667.531189 442.661987,667.709900 
	C445.763062,670.253357 446.986786,674.939819 451.129730,677.686768 
	C457.241669,688.125916 466.037933,695.341614 478.035645,699.064819 
	C475.279602,701.544250 472.906158,699.381836 470.061737,699.850159 
	C478.668976,704.245239 487.619995,704.166138 497.122681,705.264343 
	C495.840088,706.321716 495.488617,706.867065 495.109650,706.886902 
	C481.757355,707.585327 468.563141,706.999084 458.244873,697.036255 
	C445.660797,684.885681 436.134247,670.385071 428.227539,654.870972 
	C420.617401,639.938599 421.182434,624.680176 427.657471,609.510986 
	C430.350250,603.202576 429.943146,602.488708 423.098724,602.219849 
	C406.793671,601.579407 390.535034,600.385498 374.435669,597.556152 
	C365.410217,595.969971 356.304382,595.036377 347.171814,594.385010 
	C343.717621,594.138611 340.505463,595.624146 338.590179,598.137146 
	C337.468231,599.609253 335.265930,602.330566 337.954590,604.767273 
	C341.200989,607.709412 344.222717,610.846313 346.462708,614.602783 
	C340.248627,616.263916 333.231812,613.567017 330.815491,608.558167 
	C329.288055,605.391907 329.995819,602.430298 331.404938,599.450012 
	C332.843384,596.407776 336.000305,595.522766 339.303925,593.749023 
	C333.023346,591.627136 327.399353,591.491394 321.753448,591.289978 
	C307.024963,590.764832 292.443176,589.144958 279.107452,582.291687 
	C250.896225,567.793823 233.793701,543.297241 220.164703,515.830750 
	C210.457672,496.268097 204.833374,475.587280 201.918137,453.886475 
	C199.351608,434.781342 203.230927,418.656097 217.708618,405.395172 
	C224.347900,399.313812 231.045197,393.330505 238.093552,387.731903 
	C239.553284,386.572418 241.678619,385.700439 240.874878,382.174652 
	C228.192017,384.478546 220.577072,393.253479 213.488190,402.601685 
	C206.398605,411.950806 201.092499,422.372131 196.561066,433.631714 
	C194.794144,431.506561 195.664474,430.098419 196.130920,428.767273 
	C203.380005,408.080109 213.919785,390.016785 234.900955,380.302826 
	C236.426178,379.596680 238.475235,378.533722 237.647415,376.723389 
	C236.141983,373.431244 236.692459,369.388062 234.124237,366.666626 
	C233.175720,365.661530 231.619843,367.018280 230.576401,367.781769 
	C224.800415,372.008087 218.822906,375.998291 214.301392,381.706848 
	C212.749924,383.665619 210.713898,385.282776 209.471161,388.742340 
	C214.847809,384.431396 218.447617,379.600159 224.236786,377.497070 
	C220.082764,381.523224 216.825928,386.280975 212.774765,390.222839 
	C208.862762,394.029266 206.416046,399.091949 200.419815,401.351288 
	C196.944702,402.660645 195.023438,408.247955 194.212280,412.843079 
	C192.767120,421.029999 193.388611,429.466156 191.204895,437.564484 
	C190.856628,438.855988 191.341705,440.637604 188.414902,440.928772 
	C189.686661,430.653076 188.925354,420.287109 192.147583,410.733673 
	C198.173355,392.868134 209.694611,378.788055 225.059296,367.886780 
	C228.453018,365.478912 231.959732,363.230743 235.399750,360.887512 
	C236.963806,359.822174 238.916275,358.327698 237.133163,356.533752 
	C232.300293,351.671448 231.050186,345.765625 231.961197,339.041840 
	C226.926025,340.578186 217.205978,349.554871 214.445770,354.684235 
	C218.370987,351.187683 218.370987,351.187683 222.329193,350.951233 
	C206.100998,364.672974 198.366104,382.676941 191.357422,400.959839 
	C184.170364,419.708008 185.544922,439.766174 184.003601,459.863556 
	C183.339310,459.063324 183.039536,458.849304 182.954498,458.569946 
	C182.761887,457.937134 182.622330,457.277710 182.552933,456.619415 
	C180.646378,438.533539 182.323975,420.715607 187.673691,403.402954 
	C190.219833,395.163147 192.033188,386.899933 193.377808,376.840057 
	C191.656677,380.181091 190.144821,380.972748 188.090530,379.153717 
	C187.568848,380.486389 187.281601,381.441864 186.838486,382.318542 
	C181.168747,393.535583 182.256790,406.200378 179.193161,417.974731 
	C178.947601,418.918579 179.141830,419.806793 179.499557,420.821533 
	C180.782516,424.460724 181.826996,428.201019 177.064957,430.417664 
	C175.708420,431.049164 175.350479,432.370636 175.338531,433.781799 
	C175.229630,446.658508 177.321350,459.232300 180.376892,472.775818 
	C181.076111,468.483337 178.462784,465.300568 180.786575,461.488098 
	C185.293915,472.548004 182.687027,484.015686 184.355240,495.598267 
	C192.191406,488.642517 198.047073,489.462006 201.757477,497.980011 
	C195.161026,495.450836 190.134796,497.168213 186.011810,503.120117 
	C188.303940,512.643494 190.686218,523.014160 193.303162,533.325256 
	C200.976685,563.559692 209.214722,593.498657 227.264160,619.761963 
	C239.287827,637.257324 251.471497,654.466858 268.396179,668.587952 
	C269.362579,669.478149 270.329010,670.368286 271.718536,671.700928 
	C277.260437,675.832886 281.485321,681.708252 288.668549,684.604004 
	C289.793213,685.758545 290.917877,686.913025 292.470032,688.561707 
	C304.437103,698.224670 316.695618,707.449768 330.735474,714.764954 
	C330.595062,706.831238 332.951630,704.347595 339.259399,705.693970 
	C335.316803,707.247986 338.991364,709.922852 337.880249,711.792297 
	C334.866913,716.862610 338.199615,718.987061 341.970795,720.829529 
	C355.872223,727.621216 370.839294,730.693787 385.937897,733.279907 
	C386.920380,733.448181 387.931213,733.616516 388.939117,732.272827 
	C385.137665,727.913635 382.102814,723.061401 384.289642,716.759338 
	C386.049255,711.688721 392.247498,706.486694 397.342590,706.479126 
	C393.122192,710.042786 389.089050,713.172607 387.016052,719.146851 
	C390.459076,715.601074 392.517731,711.926514 397.492645,711.030518 
	C396.114929,714.587585 392.538544,715.233215 391.638733,718.899902 
	C390.426147,722.383240 391.132996,725.383972 394.437500,728.295837 
	C395.739410,729.390137 398.093018,729.180237 398.454529,731.430481 
	C397.458405,733.095825 395.797455,731.209900 393.877686,732.694641 
	C412.248901,739.153992 431.082458,737.723938 449.353424,740.713501 
	C448.311188,743.320557 445.167816,742.961426 444.006744,745.003845 
	C444.006744,745.003845 444.044800,744.976257 443.328094,745.122681 
M558.213684,109.372612 
	C537.409790,106.441315 516.520264,104.840027 495.494110,105.158379 
	C485.004761,105.317200 474.488281,105.094635 464.109894,106.915520 
	C441.512756,110.880188 420.782776,119.729187 401.061890,131.212799 
	C358.805359,155.819077 328.747711,190.645660 312.913574,237.135422 
	C303.721802,264.122772 300.681671,292.065460 303.561584,320.356445 
	C306.042572,344.728363 313.919281,367.695679 324.545929,389.777954 
	C338.210297,418.172455 359.472900,439.953003 384.179535,458.627655 
	C413.220215,480.578186 446.312012,492.364716 482.419525,495.716522 
	C494.509888,496.838867 506.716309,496.734222 518.798584,497.916595 
	C559.532410,501.902771 596.378784,516.817322 627.882874,542.385559 
	C671.216431,577.554382 694.214111,624.383057 699.337585,679.851379 
	C702.542114,714.544250 696.475342,748.009888 683.039917,779.917053 
	C663.416077,826.520813 628.186462,858.126953 583.672668,880.331848 
	C581.699097,881.316345 579.421509,881.884399 577.911133,883.743958 
	C579.082947,884.865234 580.069031,884.623352 581.028809,884.379944 
	C590.546997,881.965149 600.145447,879.823730 609.564636,877.069458 
	C669.316833,859.597290 721.968689,829.534851 767.470093,787.093872 
	C821.666016,736.543091 858.704102,675.415161 878.663513,604.091553 
	C890.603638,561.424255 894.725159,517.901794 891.919800,473.613495 
	C889.812500,440.346191 883.714233,407.930847 873.310852,376.347443 
	C850.961853,308.498444 812.820984,250.915497 759.450134,203.516846 
	C724.471436,172.452301 684.921692,148.753128 641.356445,131.687378 
	C614.733887,121.258583 587.249084,114.136772 558.213684,109.372612 
M245.128174,286.526886 
	C241.521561,292.732819 237.427811,298.631500 232.772568,304.061646 
	C225.731247,312.275055 217.950760,319.879272 211.219131,328.327789 
	C201.632141,340.359924 197.515198,355.213226 191.646835,369.138336 
	C190.214493,372.537201 193.349106,372.628326 195.282440,374.217743 
	C199.796783,363.030273 208.362061,355.478943 216.513519,347.726410 
	C227.752640,337.037384 238.537827,325.994934 247.787430,313.511261 
	C249.171783,311.642883 251.042007,309.998474 250.473114,307.356018 
	C249.671387,303.632050 250.562347,300.081177 251.454117,296.540985 
	C254.810913,283.214996 262.153595,271.904877 269.557770,260.597168 
	C272.907104,255.482071 275.808960,250.073990 279.498505,243.805450 
	C275.815918,245.089386 274.282776,246.869400 272.586975,248.426010 
	C260.997681,259.063934 252.798386,272.158875 245.128174,286.526886 
M270.871338,717.658142 
	C274.169312,718.047791 277.481689,718.346558 280.758881,718.867126 
	C282.297485,719.111572 284.802887,718.334167 284.280823,721.590027 
	C284.114441,722.627808 285.377472,722.711243 286.150513,722.632751 
	C293.005219,721.936707 299.239288,725.561157 306.190308,725.234497 
	C310.133392,725.049255 314.196808,727.424622 317.545380,728.445374 
	C318.312561,730.863037 316.058044,729.568298 316.242462,731.563232 
	C323.105621,731.486938 330.923462,727.584106 335.612640,734.977966 
	C341.323639,732.597412 346.690765,731.812866 352.204529,731.741028 
	C354.796295,731.707275 355.198669,734.681030 356.751923,735.424133 
	C364.074982,738.927551 372.362946,740.148376 380.021118,742.125305 
	C389.607422,744.599976 400.562256,741.773376 410.926331,741.235107 
	C395.788452,738.051941 380.446320,736.867371 365.720856,732.592224 
	C346.717560,727.075195 327.636261,722.019287 307.987091,719.425964 
	C288.519287,716.856628 269.834869,711.830200 252.577347,702.195557 
	C246.448517,698.773987 239.962677,696.276184 233.330276,693.981873 
	C225.165848,691.157593 216.944916,688.401794 209.248825,684.341003 
	C204.272141,681.714966 200.197693,677.781982 195.116837,675.262939 
	C202.131165,683.401184 208.941986,691.713501 219.861099,695.121765 
	C222.744247,696.021729 225.668411,697.364746 225.750229,701.203735 
	C229.864182,699.901733 234.394821,702.470154 234.408234,706.356140 
	C234.413559,707.907288 235.585220,708.337585 236.079971,708.209106 
	C241.494461,706.803467 245.444122,710.719543 250.124695,711.891418 
	C250.583557,712.006287 251.048996,712.094910 251.773422,712.252808 
	C251.053040,711.310852 250.499481,710.587036 249.897064,709.799316 
	C251.453003,708.457642 252.413651,708.704956 254.263565,709.527588 
	C259.682098,711.937134 263.945068,716.591309 270.871338,717.658142 
M233.252274,645.141907 
	C231.707855,645.545044 230.486526,643.401123 228.295593,644.651917 
	C236.140671,652.790833 245.566147,657.738342 255.469254,662.056213 
	C244.956131,650.144409 234.951050,637.926636 226.634018,624.444458 
	C223.694214,619.678894 220.107300,615.741028 215.626389,612.394775 
	C204.163315,603.834473 194.750290,593.308777 186.891296,581.385437 
	C177.990463,567.881409 170.423523,553.604065 162.697128,539.421204 
	C161.456924,537.144775 160.285934,534.849731 157.388168,533.524536 
	C165.220398,562.535828 176.780746,589.109192 198.414810,611.809021 
	C197.316208,608.158569 194.531967,606.590393 195.546860,603.238586 
	C201.044861,610.982971 207.470306,617.921021 213.667099,625.075195 
	C210.238205,625.180603 209.031433,622.171021 206.017471,620.784912 
	C209.694763,625.103638 212.902588,628.923462 216.177551,632.684875 
	C217.150742,633.802612 218.159470,635.352112 219.694687,635.312744 
	C226.659912,635.134338 229.635437,640.668823 233.252274,645.141907 
M184.178253,537.423645 
	C184.062210,539.840881 185.928024,542.243652 184.519821,545.424316 
	C181.275620,541.017395 182.026718,536.198364 180.095184,531.397949 
	C179.763702,542.836609 184.899292,552.171936 187.947144,562.086975 
	C184.979233,562.338745 185.413254,559.220398 182.981201,558.120300 
	C188.303421,570.719238 194.375992,581.982117 201.168945,592.834656 
	C204.916702,598.822021 208.761581,604.925781 216.090897,608.064270 
	C215.846252,607.115662 215.804092,606.443359 215.514847,605.903442 
	C199.986145,576.914246 193.081161,545.132263 185.505096,513.556335 
	C180.959671,494.611725 177.105225,475.535004 173.883118,456.324921 
	C173.600479,454.639893 173.851227,452.512848 171.005325,452.026398 
	C169.521103,454.973938 170.856659,457.876648 171.328659,460.662933 
	C173.725296,474.811310 172.676056,489.291199 176.840469,503.383942 
	C179.360748,511.912720 178.675934,521.360657 182.784378,529.748291 
	C183.765732,531.751770 183.635864,534.299500 184.178253,537.423645 
M212.074249,322.623322 
	C222.959396,310.707306 234.386826,299.235260 242.558090,285.109955 
	C250.742813,270.961395 259.335663,257.109283 271.425964,245.824799 
	C272.001953,245.287201 272.624390,244.593430 271.484650,243.165512 
	C257.070251,251.727310 247.715759,264.860168 238.201752,279.375977 
	C241.619293,277.419159 241.898239,273.916504 245.610809,272.690979 
	C242.484940,279.089966 238.841949,284.425903 237.243179,290.866364 
	C235.461090,298.045349 227.293991,299.418884 222.653625,304.277710 
	C219.374542,307.711151 214.381271,308.472351 215.280838,315.438934 
	C215.654327,318.331268 211.538574,322.677368 207.878677,325.267242 
	C206.729233,323.056885 209.548981,322.126282 208.804901,320.062103 
	C203.007233,327.140289 198.388168,334.636902 193.944061,342.247864 
	C193.288498,343.370575 191.924011,344.756989 192.681183,345.845825 
	C194.663712,348.696716 192.809723,350.989258 191.966263,353.332825 
	C189.882385,359.122681 187.620178,364.852905 185.259003,370.536224 
	C184.287476,372.874725 183.866043,375.616028 180.992615,377.780609 
	C181.623825,370.651886 185.738571,365.163635 186.103043,358.739227 
	C178.197906,372.649902 174.650223,387.509949 176.024063,403.474670 
	C177.203705,402.477325 177.950287,401.349182 178.229233,400.115295 
	C180.881805,388.382141 185.434814,377.293365 189.754288,366.135254 
	C195.581375,351.082611 201.208527,335.904999 212.074249,322.623322 
M395.934601,773.649109 
	C388.150574,771.097961 382.744446,775.183105 379.120178,781.007141 
	C374.186249,788.935669 366.842865,792.214844 358.426605,793.332153 
	C341.794800,795.540039 325.433868,793.257996 309.571930,789.316895 
	C314.197479,795.401672 320.931213,797.004089 329.040863,795.303955 
	C327.833954,798.100281 325.300842,796.820068 324.588867,798.736267 
	C325.656891,800.606140 327.650146,801.381653 329.166656,800.188416 
	C333.332916,796.910339 335.225647,801.516174 338.131104,802.104248 
	C346.658844,803.830505 355.484375,805.066650 364.039001,801.465271 
	C359.959076,801.274475 355.855164,803.407959 351.739655,801.264893 
	C354.089020,800.460632 356.483704,800.050171 358.891205,799.739319 
	C363.554840,799.136963 369.272827,799.655518 372.704132,797.866455 
	C383.536743,792.218140 391.609711,782.456726 402.171875,776.032837 
	C400.425171,773.763367 398.323792,774.493225 395.934601,773.649109 
M302.375519,779.304260 
	C303.949768,779.106262 305.704163,779.168274 306.097260,780.927368 
	C306.964905,784.810486 309.910156,784.442871 312.318176,783.746521 
	C314.971497,782.979126 316.631836,783.531128 318.336334,785.468811 
	C319.622711,786.931213 321.024200,788.898315 322.701202,789.310181 
	C331.710175,791.522461 340.878784,790.522766 349.607300,788.275574 
	C352.820740,787.448181 355.624969,786.580444 358.849091,787.214050 
	C364.221466,788.269775 369.551514,785.805786 373.327515,783.554138 
	C377.077820,781.317688 380.230713,776.325256 383.299744,771.795044 
	C379.547974,770.518005 376.343903,768.932190 372.641174,769.042847 
	C372.481018,777.283386 369.770538,780.609497 361.836212,782.389771 
	C357.626038,783.334534 353.290283,783.805359 349.160583,785.004456 
	C341.949005,787.098389 335.039856,786.360535 328.144287,783.813171 
	C325.030518,782.662781 321.918549,781.380310 318.692139,780.684570 
	C305.674896,777.877502 293.780365,772.510437 282.566528,765.458862 
	C280.892639,764.406250 279.278107,762.921997 276.165771,763.279358 
	C280.852234,768.286987 284.207825,773.883484 290.440186,775.455139 
	C294.333405,776.437012 298.143829,777.329468 302.375519,779.304260 
M315.830383,513.610046 
	C319.561584,516.104248 323.271179,518.631897 327.040253,521.067505 
	C327.900421,521.623291 329.124176,523.147339 329.949677,521.829041 
	C332.100494,518.394226 333.537384,521.548584 334.528992,522.435852 
	C337.444031,525.044128 339.979401,528.076660 343.043732,531.349182 
	C343.139771,529.069458 340.698761,528.244751 341.257812,526.960266 
	C342.029053,525.545166 343.748383,527.264771 343.768036,525.403931 
	C340.981934,521.347595 299.858551,497.931946 294.910400,498.130951 
	C301.349091,504.366608 308.519257,508.494232 315.830383,513.610046 
M356.931519,582.541199 
	C351.539307,574.866089 348.340057,572.145813 342.263367,570.189209 
	C346.586731,575.178833 351.768311,579.341736 353.229767,586.190063 
	C349.333344,579.786987 343.079590,575.523987 338.836243,569.587097 
	C337.039032,567.072510 335.122559,567.299683 332.909882,567.231201 
	C331.896393,567.199829 330.746094,567.660767 330.632751,568.778015 
	C330.367218,571.396179 332.857605,571.772095 334.372284,572.855835 
	C340.313751,577.107056 346.819275,581.082642 350.816956,587.100525 
	C354.018677,591.920288 357.192413,590.855347 361.225861,590.479126 
	C361.107452,586.942749 358.607666,585.380493 356.931519,582.541199 
M368.492645,567.189331 
	C366.863617,553.077515 355.630829,544.411682 349.864075,532.687439 
	C348.003540,533.568542 346.881683,534.099854 345.224701,534.884583 
	C349.643707,540.777222 353.947144,546.460449 358.189545,552.188782 
	C362.388245,557.858032 362.792816,565.826355 369.343079,570.412659 
	C369.066010,569.399597 368.852234,568.617981 368.492645,567.189331 
M342.639557,548.942322 
	C346.594269,552.078369 352.842926,553.425354 351.616913,560.636963 
	C351.526001,561.171936 352.593201,562.839172 353.596802,562.378113 
	C356.770264,560.920227 357.103455,563.979614 358.502197,565.230042 
	C361.211761,567.652344 362.270599,571.699158 366.236816,573.443176 
	C363.887268,564.501587 339.658997,537.178101 333.922821,537.055969 
	C336.763611,540.924988 339.491425,544.640198 342.639557,548.942322 
M357.293732,578.238953 
	C361.641113,582.678284 363.392426,589.726196 370.444885,592.373962 
	C370.820526,589.283752 369.234070,588.042358 368.146149,586.723511 
	C361.811584,579.044617 355.436646,571.395630 348.911652,563.878540 
	C345.364105,559.791626 344.080292,560.080139 340.923645,565.354492 
	C347.621826,567.681091 352.394562,572.487854 357.293732,578.238953 
M175.475693,551.849915 
	C176.325714,552.796021 177.175735,553.742126 178.025757,554.688232 
	C174.318466,545.292175 173.767380,534.095642 163.181335,528.279236 
	C162.865524,529.193054 162.501053,529.687439 162.584869,530.087952 
	C164.217102,537.887634 168.477753,544.510071 172.148560,551.403748 
	C173.025238,553.050110 173.968109,552.158020 175.475693,551.849915 
M563.142639,745.174805 
	C569.129822,749.645569 572.608093,748.708130 575.496765,742.292114 
	C577.778687,737.223816 581.133606,733.249207 587.625427,734.519470 
	C587.875183,731.357788 586.733398,729.143250 584.095886,730.891296 
	C577.109192,735.521484 569.512512,739.217651 563.142639,745.174805 
M383.644257,584.951294 
	C382.129700,582.820007 380.446503,580.898438 377.692902,579.834778 
	C379.483154,589.661926 390.102570,599.241089 397.112671,595.832886 
	C396.601044,593.779236 394.894867,592.572571 393.192169,592.744263 
	C387.667450,593.301392 385.860718,589.486389 383.644257,584.951294 
M373.815857,581.757080 
	C372.373840,580.077209 371.118622,578.184875 368.617676,576.864258 
	C371.017273,584.227112 372.217285,591.733215 381.894653,594.472290 
	C378.941620,589.766602 376.599915,586.035034 373.815857,581.757080 
M302.392609,729.700439 
	C301.419128,729.495483 300.607819,728.389709 299.212952,729.095825 
	C307.778809,734.793274 316.742584,738.282898 327.022614,737.404297 
	C318.983734,735.041748 310.861633,732.950928 302.392609,729.700439 
M175.818100,531.733765 
	C177.287018,543.845398 178.894547,549.508118 182.517715,554.298035 
	C176.735474,542.547546 176.764374,529.745422 176.224213,517.046265 
	C175.823044,517.092407 175.421890,517.138550 175.020721,517.184753 
	C175.239105,521.736572 175.457489,526.288452 175.818100,531.733765 
M185.991852,571.335693 
	C182.927719,563.920837 182.927719,563.920837 178.619141,562.862000 
	C182.249847,568.387756 185.571884,573.443726 188.893906,578.499695 
	C189.122757,578.354065 189.351608,578.208496 189.580444,578.062866 
	C188.501038,576.036804 187.421631,574.010681 185.991852,571.335693 
M208.768402,680.202026 
	C208.927979,680.219482 209.108078,680.289612 209.240753,680.237915 
	C209.349731,680.195496 209.477951,679.906189 209.469238,679.899780 
	C205.288406,676.805542 202.220703,672.185120 196.401550,669.901550 
	C199.314194,675.481934 204.290146,677.149292 208.768402,680.202026 
M343.597992,805.995544 
	C342.664154,805.843018 341.730286,805.690491 340.796448,805.537964 
	C344.795471,807.427368 348.871582,808.579651 353.161072,806.096680 
	C350.221375,806.096680 347.281708,806.096680 343.597992,805.995544 
M359.714996,739.955139 
	C364.038666,740.990234 368.216309,742.775391 374.019653,742.560547 
	C368.239441,741.161377 363.628113,740.043701 359.009491,738.957092 
	C358.979767,738.950134 358.821014,739.368713 358.787842,739.598083 
	C358.780884,739.646301 359.061890,739.736145 359.714996,739.955139 
z"/>
<path fill="#000000" opacity="1.000000" stroke="none" 
	d="
M268.217865,668.322571 
	C267.064545,666.325256 266.074493,664.601501 265.117188,662.859863 
	C261.264984,655.851562 263.709137,648.255737 270.896759,644.868530 
	C277.174500,641.910095 287.564423,643.664734 292.195221,648.647034 
	C289.948120,649.302368 288.289062,647.811707 286.265259,647.513794 
	C283.156830,653.748657 271.326904,650.876160 272.222504,661.762878 
	C268.965149,659.625183 269.836578,657.032654 270.265472,654.549438 
	C267.548553,660.265137 271.663239,664.534973 273.286865,669.280579 
	C273.931122,671.163513 273.965668,671.765076 271.576538,671.302612 
	C270.329010,670.368286 269.362579,669.478149 268.217865,668.322571 
z"/>
<path fill="#000000" opacity="1.000000" stroke="none" 
	d="
M288.466949,684.402649 
	C285.952118,675.773254 286.661407,672.964294 291.983307,669.476807 
	C297.885101,665.609253 304.062897,665.802490 309.510681,670.248596 
	C305.510101,672.286133 300.762360,672.782654 298.012695,676.746704 
	C296.833771,678.446289 295.412537,676.816711 293.453522,676.392517 
	C293.988525,680.484314 294.483978,684.273682 295.018707,688.363525 
	C294.150055,688.289246 293.372040,688.222717 292.318298,688.111877 
	C290.917877,686.913025 289.793213,685.758545 288.466949,684.402649 
z"/>
<path fill="#000000" opacity="1.000000" stroke="none" 
	d="
M167.011169,597.048279 
	C167.100128,595.482849 165.872910,594.245544 167.151230,592.150208 
	C177.087921,607.515076 189.521347,620.454407 199.554459,635.283569 
	C191.051392,628.367004 185.458939,618.834290 177.306458,611.216919 
	C173.755646,606.481079 170.485886,601.914185 167.011169,597.048279 
z"/>
<path fill="#000000" opacity="1.000000" stroke="none" 
	d="
M402.336212,764.302246 
	C402.435120,756.629028 409.642914,750.642517 417.870422,751.699829 
	C413.209137,755.356628 405.615875,754.707092 404.387665,762.169006 
	C406.105225,763.262146 408.171906,762.334045 409.905762,763.602661 
	C411.690216,764.908325 412.080231,766.807861 413.276245,768.324280 
	C412.337189,769.991516 410.917267,769.006714 409.354614,769.030334 
	C406.450806,768.069580 404.327667,766.527405 402.336212,764.302246 
z"/>
<path fill="#000000" opacity="1.000000" stroke="none" 
	d="
M391.762573,718.566895 
	C392.736328,717.879883 393.452789,717.055908 395.075775,717.695190 
	C392.104767,720.904724 395.164337,724.349182 394.186462,727.822754 
	C391.132996,725.383972 390.426147,722.383240 391.762573,718.566895 
z"/>
<path fill="#000000" opacity="1.000000" stroke="none" 
	d="
M398.428772,788.725342 
	C397.316071,788.606201 395.552673,788.193115 396.554413,787.328186 
	C398.843018,785.351868 401.122253,782.364807 405.101318,784.563599 
	C402.866882,785.789917 401.370972,788.280273 398.428772,788.725342 
z"/>
<path fill="#000000" opacity="1.000000" stroke="none" 
	d="
M202.266541,665.241516 
	C201.113770,663.808838 199.467621,663.039490 199.212204,660.664856 
	C202.950165,661.987671 205.380890,664.262329 207.808762,666.525574 
	C206.942459,668.531250 205.743927,667.194946 204.450714,667.173218 
	C203.583923,666.561401 203.028641,666.004028 202.266541,665.241516 
z"/>
<path fill="#000000" opacity="1.000000" stroke="none" 
	d="
M718.161987,210.886047 
	C707.961487,204.984390 697.402344,201.026642 686.279114,198.520691 
	C683.615234,197.920578 680.917603,197.969177 678.353149,198.655960 
	C674.847229,199.594910 671.638672,201.106400 672.476440,205.699280 
	C669.527710,205.995102 668.215027,203.963425 666.466736,202.836365 
	C658.576965,197.750183 650.340759,194.061142 640.654053,196.636780 
	C632.701233,198.751434 629.609863,203.556488 631.399841,210.317535 
	C632.115540,213.020874 633.662964,214.838913 636.173706,215.632721 
	C653.707458,221.176193 667.616211,233.870193 684.379211,240.485367 
	C695.487915,244.869171 706.455688,249.651505 717.533630,254.110641 
	C726.729370,257.812164 736.317261,259.221649 745.852539,261.135376 
	C757.435791,263.460052 768.201904,267.783081 778.030579,274.277313 
	C793.193237,284.295898 808.044495,294.738342 820.581177,308.076721 
	C821.943420,309.526031 823.427002,310.893646 823.975281,312.893646 
	C821.222412,316.493713 822.287354,321.339111 826.169739,326.850983 
	C839.250732,345.422516 849.982117,365.344147 859.483337,385.945923 
	C859.881165,386.808441 860.525940,387.739594 859.439575,388.869080 
	C856.499023,387.210327 855.143860,383.333588 851.603210,382.677399 
	C850.408691,383.088409 850.085999,384.040192 850.378174,384.754700 
	C858.422363,404.426788 857.241272,426.300598 864.852478,446.004059 
	C869.129456,457.076019 873.084900,468.112671 874.672058,479.936310 
	C876.362854,492.531769 876.832520,505.160583 875.813660,517.800171 
	C875.370544,523.297180 875.507080,528.786194 875.152344,534.266479 
	C875.043396,535.950195 875.836609,537.982788 873.619324,539.327271 
	C871.939819,537.595032 872.036987,535.341370 871.905396,533.318481 
	C871.084045,520.698120 870.243896,508.075470 869.713257,495.440826 
	C869.326965,486.243439 866.429016,477.819794 862.615234,469.633423 
	C861.637024,467.533722 859.979065,465.822662 857.196777,465.489594 
	C854.802490,468.470917 857.482849,471.832458 856.603394,476.056183 
	C852.319519,470.162079 849.322388,464.245667 841.606140,461.029510 
	C841.608337,493.204163 842.811951,524.357239 847.646851,555.227600 
	C845.086609,556.022339 844.462341,553.253357 842.613281,553.751221 
	C840.824280,554.810181 840.919678,556.696838 841.137817,558.209900 
	C842.198975,565.570312 840.724792,572.891541 841.623474,580.400330 
	C842.834534,590.519592 841.514587,600.999817 840.752197,611.285950 
	C838.710388,638.832092 824.733643,661.522766 809.756714,683.404724 
	C793.675964,706.899536 776.615173,729.742126 759.468872,752.482483 
	C747.568359,768.265564 730.759827,777.896973 712.700989,787.415344 
	C713.493408,784.363464 713.979797,782.212341 715.600952,780.830322 
	C728.200378,770.090332 734.874451,755.067871 743.810974,741.714172 
	C750.398499,731.870728 755.659546,721.250854 757.993591,709.443665 
	C758.186951,708.465698 758.790894,707.348450 758.512329,706.531860 
	C755.979492,699.106323 760.954285,694.812561 765.023804,689.982849 
	C768.450867,685.915710 771.660828,681.640686 774.678162,677.258850 
	C779.834229,669.771118 778.516113,657.296509 772.002380,650.824402 
	C770.267639,649.100708 769.637329,647.878845 771.169800,645.336182 
	C775.811035,637.635864 774.755249,632.823792 767.894470,627.141541 
	C762.345520,622.545715 762.394714,622.450745 768.267151,617.827271 
	C778.218933,609.992004 787.955322,601.927979 796.808228,592.808411 
	C808.483093,580.782043 812.177307,566.673889 810.171936,550.189087 
	C807.951660,531.938110 805.027161,513.956604 797.921936,496.890106 
	C795.810486,491.818726 793.245789,486.932526 791.223633,481.828766 
	C789.864807,478.399109 786.502747,477.270721 784.282471,474.856628 
	C777.800476,467.808563 770.281799,462.020874 761.812012,457.559814 
	C759.276611,456.224365 758.062134,454.405823 757.994263,451.671692 
	C757.944641,449.673126 757.726501,447.648346 757.954956,445.678345 
	C759.337402,433.755493 753.241760,426.010864 744.135498,419.498566 
	C728.377625,408.229370 710.963318,402.301880 691.637329,401.113403 
	C681.383911,400.482880 670.971375,400.799347 660.929810,397.809540 
	C658.313721,397.030640 655.435059,396.900879 653.899231,399.834747 
	C652.438599,402.624939 654.960449,404.117798 656.495117,405.690704 
	C662.474121,411.818817 669.458130,416.636139 676.850586,420.893768 
	C677.968201,421.537445 679.395996,421.896088 679.623535,423.623596 
	C678.017151,425.829407 675.432068,425.828735 673.061523,426.495026 
	C670.358765,427.254700 667.713806,428.316162 665.163147,429.503143 
	C657.755371,432.950378 657.201660,435.265656 661.540039,442.010468 
	C666.053345,449.027161 671.026917,455.609161 678.035645,460.220459 
	C677.485413,461.069489 677.375183,461.459381 677.131287,461.580719 
	C675.305115,462.489319 672.265137,460.978088 671.521851,463.744049 
	C670.799438,466.432068 673.443481,467.803711 675.024780,469.368225 
	C681.840454,476.111328 690.534790,480.237366 698.273254,485.703094 
	C710.433960,494.292297 722.262085,503.151978 731.039307,515.418823 
	C731.975586,516.727478 733.390930,517.839783 733.337280,519.726379 
	C731.956238,520.929138 731.104492,519.745117 730.483337,518.937134 
	C718.663696,503.562500 701.781311,494.935059 684.793518,487.759430 
	C665.779602,479.727997 653.225464,466.471344 643.311035,449.249146 
	C639.659424,442.906097 636.716309,435.766571 630.318848,431.247375 
	C629.625916,430.757904 629.365479,429.520508 629.104797,428.574860 
	C624.845947,413.125732 613.177185,404.366089 600.800598,395.685028 
	C592.377930,389.777252 583.588562,389.060028 574.046692,389.106537 
	C567.581787,389.138062 562.377869,389.015167 556.506409,394.279999 
	C548.938354,401.066010 537.818359,402.496277 527.609802,404.314911 
	C512.711121,406.969025 498.240448,404.331635 483.584869,401.553497 
	C462.156708,397.491577 440.658813,394.151947 420.430756,385.360321 
	C395.903320,374.700134 372.809296,361.590759 350.414978,346.996002 
	C333.427429,335.924927 335.167145,314.390503 345.185364,303.520142 
	C356.068146,291.711731 368.689209,281.845825 380.546021,271.126312 
	C382.893768,269.003754 385.280670,266.918457 387.735474,264.921600 
	C392.932251,260.694214 396.877563,256.618103 397.304474,248.693359 
	C397.955261,236.613617 412.644501,227.993988 423.600677,231.689392 
	C426.314514,232.604752 428.739655,233.929596 430.524536,236.462799 
	C445.834961,229.295792 460.947968,221.886566 476.870728,216.406860 
	C483.389008,214.163651 490.145966,212.864944 496.910645,211.489609 
	C505.350220,209.773773 513.747498,207.974564 522.329285,207.216095 
	C527.356018,206.771790 532.615173,205.237518 537.183960,209.104584 
	C538.114990,209.892624 539.391174,209.450974 540.558167,209.204178 
	C548.045288,207.620636 556.004089,207.194763 562.937195,204.301834 
	C574.981079,199.276337 587.571777,195.335220 598.473816,187.638031 
	C613.187683,177.249619 629.223633,169.784393 647.323303,167.195724 
	C658.056396,165.660629 667.622742,168.395081 677.001526,173.312988 
	C689.439270,179.834885 700.789856,187.992950 712.335693,195.874847 
	C722.860229,203.059540 731.559448,212.294952 740.636963,221.103546 
	C741.115906,221.568222 741.381348,222.192978 740.649841,223.531845 
	C732.536621,220.778122 726.093750,214.808960 718.161987,210.886047 
M436.375732,348.134369 
	C436.017700,356.984619 445.000977,362.250336 454.066071,358.503967 
	C458.794159,356.549927 460.168213,352.439758 457.593445,347.952637 
	C453.255310,340.392456 442.668152,340.126984 436.375732,348.134369 
z"/>
<path fill="#000000" opacity="1.000000" stroke="none" 
	d="
M518.628540,630.014465 
	C524.145264,620.554077 532.603699,617.192322 542.652344,616.842834 
	C545.286682,616.751282 548.708618,617.921997 547.191284,613.012024 
	C550.147705,613.092224 551.795044,614.632324 553.719788,615.540955 
	C555.477051,616.370483 556.708130,617.320984 559.400391,616.286316 
	C562.590759,615.060059 564.913818,618.791321 566.580872,621.320496 
	C566.345215,623.071655 564.518188,621.862305 564.270020,623.235596 
	C565.980042,625.784424 568.619263,627.736694 569.864624,631.081055 
	C567.654663,631.736755 566.919922,628.808594 564.921814,629.326172 
	C564.921814,629.725464 564.770386,630.245117 564.943726,630.610962 
	C570.611267,642.572510 569.342773,647.834778 558.817505,655.862854 
	C546.121277,665.546814 531.123901,663.585938 521.518860,650.962402 
	C516.730042,644.668640 515.252686,637.861023 518.628540,630.014465 
M523.971436,628.500183 
	C518.938477,636.128723 518.488525,641.892029 523.536011,648.191284 
	C536.313293,664.137268 550.812378,662.594116 563.129395,646.790039 
	C565.666992,643.534058 565.592834,639.418518 564.129700,635.799622 
	C560.875916,627.751770 554.904663,622.190430 546.337646,620.596924 
	C537.952759,619.037231 530.075195,620.602356 523.971436,628.500183 
z"/>
<path fill="#000000" opacity="1.000000" stroke="none" 
	d="
M358.722351,669.621094 
	C360.536652,670.795471 362.380829,671.746704 364.225006,672.697937 
	C364.190063,673.172241 364.155121,673.646606 364.120209,674.120911 
	C356.407471,673.222595 348.601257,666.658447 340.753387,673.286743 
	C342.158691,674.057983 343.328827,672.094910 344.792603,673.743896 
	C344.160583,676.435669 341.044952,678.278931 341.087708,681.702698 
	C341.130310,685.114014 343.413635,687.371033 344.895264,690.227844 
	C342.010712,691.004150 341.458405,688.218262 339.517578,687.661621 
	C340.929474,692.160889 345.984955,692.293884 348.789001,695.483826 
	C341.500214,695.536377 334.169464,689.096008 333.706238,682.665344 
	C333.068665,673.814453 337.995575,668.684631 349.530121,667.323914 
	C344.018250,660.976013 343.547485,654.636353 349.040466,648.519958 
	C352.299652,644.890991 355.759033,643.584351 361.062531,644.330750 
	C357.785370,646.997131 353.310547,646.981812 351.113861,650.597595 
	C348.979828,654.110291 348.701630,657.642334 350.034882,661.487793 
	C350.460449,658.785950 350.366180,655.978882 352.318298,653.760864 
	C354.141327,651.689636 355.725372,649.310974 358.901764,649.059326 
	C359.029846,649.657532 359.246948,650.127502 359.135101,650.226746 
	C350.972046,657.469666 350.913818,659.162354 358.633514,667.221069 
	C359.327545,667.945679 359.431152,668.632935 358.722351,669.621094 
z"/>
<path fill="#000000" opacity="1.000000" stroke="none" 
	d="
M353.307007,709.367188 
	C353.267517,709.804138 353.226532,709.977295 353.260284,710.134399 
	C353.319275,710.408813 353.424255,710.673401 353.510010,710.942078 
	C354.230072,710.334656 354.063293,708.955566 355.800232,708.858582 
	C357.165131,718.260498 364.919128,720.990845 373.107941,723.455017 
	C367.917969,727.566528 360.589905,727.328491 355.154297,723.422241 
	C347.726196,718.084229 344.440308,710.462891 346.703674,703.821472 
	C348.924805,697.304016 355.833710,692.770081 364.207672,693.321106 
	C356.651886,697.750488 349.101959,701.272217 350.083801,710.952332 
	C350.787811,708.987915 350.751068,706.712769 352.062164,704.968323 
	C353.443787,703.130005 354.732574,701.138733 357.663361,700.429321 
	C357.152252,703.989746 353.506012,705.746887 353.307007,709.367188 
z"/>
<path fill="#000000" opacity="1.000000" stroke="none" 
	d="
M390.626923,622.494812 
	C390.852570,626.314453 392.092957,629.591614 393.446320,633.258972 
	C385.726959,636.871948 378.731110,641.200012 379.115723,651.048096 
	C379.483276,660.459351 386.381653,664.909058 394.421387,668.957275 
	C387.445007,670.572754 379.581909,664.200684 376.574890,655.577637 
	C373.318176,646.238403 378.084351,637.384216 389.742584,631.616943 
	C385.005096,627.508850 381.633057,622.798706 385.435760,616.578247 
	C388.129211,612.172241 392.079681,609.660522 397.650940,611.022644 
	C395.857666,615.146729 393.128418,618.555420 390.626923,622.494812 
z"/>
<path fill="#000000" opacity="1.000000" stroke="none" 
	d="
M379.334412,706.034424 
	C366.412659,699.395569 363.620636,685.783691 373.124664,677.430786 
	C376.297974,674.641846 379.567780,673.557373 384.423004,674.225525 
	C376.452240,677.038025 371.285950,682.082092 371.367432,690.729370 
	C371.414398,695.718872 374.234375,699.408203 379.275635,702.894043 
	C376.855743,698.384827 372.633636,695.804016 373.350677,691.213928 
	C374.018860,686.936523 375.934692,683.342651 381.092438,680.980774 
	C374.662201,693.838196 374.662201,693.838196 385.102722,702.146851 
	C384.989868,703.650452 383.616425,703.075256 382.747589,703.564941 
	C383.401611,705.267578 385.894073,704.402588 386.547424,706.603394 
	C384.191681,708.088684 381.947754,706.356445 379.334412,706.034424 
z"/>
<path fill="#000000" opacity="1.000000" stroke="none" 
	d="
M415.957855,712.946289 
	C417.234711,714.707825 420.128357,714.193115 421.090118,716.503174 
	C414.924683,718.100403 405.677094,712.823486 400.911652,705.064514 
	C395.813263,696.763428 396.620880,687.408508 403.059143,680.189148 
	C408.502472,674.085510 414.569275,672.234009 422.065704,675.709045 
	C408.387238,675.615601 402.224396,682.874512 401.619659,693.922913 
	C401.187500,701.818298 406.389435,707.763489 413.773926,711.962891 
	C414.826569,712.422791 415.392212,712.684570 415.957855,712.946289 
z"/>
<path fill="#000000" opacity="1.000000" stroke="none" 
	d="
M304.093597,637.848450 
	C304.614380,640.708313 306.671722,642.154785 309.188965,643.745850 
	C303.876190,644.587036 297.654755,641.295410 294.951263,636.754028 
	C292.732788,633.027466 292.217804,629.260742 295.038361,625.580017 
	C297.974182,621.748840 302.584747,620.786560 309.035431,622.811523 
	C307.829346,624.619446 307.750427,626.776978 304.934235,627.547729 
	C302.682343,628.164124 302.162231,635.361450 304.093597,637.848450 
z"/>
<path fill="#000000" opacity="1.000000" stroke="none" 
	d="
M465.913818,725.629639 
	C469.497070,726.998047 467.749603,727.907227 465.830627,728.914124 
	C467.339111,729.360168 468.708221,729.764954 470.309479,730.238403 
	C467.257263,732.385620 462.393646,731.684143 458.039795,728.744690 
	C452.711121,725.147217 448.823151,718.102600 450.172913,713.637085 
	C452.012390,707.551392 456.750610,704.546570 462.860992,703.075623 
	C458.910675,707.687256 450.987640,709.893921 453.952637,719.389404 
	C455.708344,714.616333 456.519592,710.208740 461.258026,707.583984 
	C456.192688,715.520325 455.697388,722.004944 465.913818,725.629639 
z"/>
<path fill="#000000" opacity="1.000000" stroke="none" 
	d="
M309.710205,692.128418 
	C310.554291,683.077942 324.450470,680.246521 330.746490,685.755188 
	C324.367584,686.922729 320.105591,690.635620 316.975128,696.420837 
	C317.863922,698.255554 319.181335,700.975098 320.503723,703.704895 
	C315.119995,703.537659 310.846802,699.111633 309.710205,692.128418 
z"/>
<path fill="#000000" opacity="1.000000" stroke="none" 
	d="
M338.010712,635.617432 
	C340.929230,635.634766 343.391968,635.741394 345.486664,638.260742 
	C336.758972,641.452454 331.075836,646.729065 332.266388,656.782532 
	C327.300995,654.232727 324.192078,648.759155 324.965271,644.281738 
	C325.745422,639.764404 330.180786,636.721130 338.010712,635.617432 
z"/>
<path fill="#000000" opacity="1.000000" stroke="none" 
	d="
M278.283722,627.878662 
	C279.536926,630.758911 278.449860,633.848206 280.236115,636.482422 
	C275.962616,635.823792 273.534515,633.057617 272.315216,629.226746 
	C270.826263,624.548645 272.577942,620.689026 276.252289,617.754028 
	C280.276276,614.539795 286.891052,614.798157 292.220367,618.309143 
	C287.992371,622.160889 279.690002,619.839478 278.283722,627.878662 
z"/>
<path fill="#000000" opacity="1.000000" stroke="none" 
	d="
M617.318298,661.378052 
	C614.364380,664.298157 611.781189,667.266663 607.368286,665.601013 
	C603.957397,664.313599 603.143372,662.218933 605.717346,659.253601 
	C608.439575,659.512146 610.135254,662.668640 613.130676,661.562134 
	C609.555725,655.577393 610.387634,651.240967 615.473450,649.661682 
	C618.439270,648.740723 621.354492,649.068298 622.799866,652.081909 
	C624.144775,654.885986 623.368164,657.645081 620.712830,659.554871 
	C619.779724,660.226013 618.673096,660.655945 617.318298,661.378052 
z"/>
<path fill="#000000" opacity="1.000000" stroke="none" 
	d="
M473.765320,650.011841 
	C469.039551,639.076904 467.908142,628.744202 476.098053,619.161804 
	C474.404572,624.474976 472.559601,629.788391 472.605042,635.504700 
	C474.066528,635.846741 473.634888,633.215637 475.938690,634.359009 
	C475.747650,642.713440 478.257660,650.679077 484.674530,656.855713 
	C482.708191,658.851379 482.133331,656.176697 480.907043,656.645996 
	C481.466736,658.495850 484.150269,659.015076 483.862305,661.950317 
	C478.777649,659.263245 476.744873,654.455750 473.765320,650.011841 
z"/>
<path fill="#000000" opacity="1.000000" stroke="none" 
	d="
M226.414581,576.076416 
	C230.062347,577.156921 232.027618,579.425659 233.340714,582.359497 
	C231.421371,584.357971 227.867783,580.948547 226.933273,584.531616 
	C226.201019,587.339172 221.716522,586.536072 222.364395,590.001099 
	C220.388199,590.394104 220.566177,588.236877 219.054962,587.899170 
	C219.714142,589.597839 220.290588,591.083313 220.964523,592.819946 
	C216.523621,591.080078 214.611435,587.134277 215.655518,582.490173 
	C216.591843,578.325378 220.468704,575.886169 226.414581,576.076416 
z"/>
<path fill="#000000" opacity="1.000000" stroke="none" 
	d="
M207.016357,571.068054 
	C205.593140,572.410889 205.256638,571.133179 204.873779,570.352966 
	C202.428986,565.371033 204.287796,558.971802 208.881577,556.377625 
	C213.784363,553.608948 219.580872,555.384888 223.920547,561.610291 
	C218.543579,559.784607 216.473465,567.916077 210.862076,564.602295 
	C209.281937,566.035950 211.161011,568.512451 209.405945,570.057190 
	C206.525452,568.693054 208.336807,565.828125 207.242432,563.600281 
	C205.504150,566.084778 206.747620,568.438049 207.016357,571.068054 
z"/>
<path fill="#000000" opacity="1.000000" stroke="none" 
	d="
M313.808105,614.989990 
	C317.946472,611.544556 322.229767,610.209717 327.707275,611.355957 
	C325.116882,614.996155 323.122925,618.282104 320.646301,621.151428 
	C317.788849,624.461975 320.357788,627.959412 319.747742,631.297729 
	C312.003784,628.160461 309.839142,622.566406 313.808105,614.989990 
z"/>
<path fill="#000000" opacity="1.000000" stroke="none" 
	d="
M399.510986,630.686279 
	C402.038971,627.923950 403.065796,623.711731 407.078491,621.928955 
	C408.239868,621.412964 409.191803,620.316345 411.066498,621.047485 
	C408.917847,625.004333 402.961151,625.802429 403.154663,631.185547 
	C403.329376,636.045898 409.326630,637.684998 409.368225,642.579773 
	C402.368713,642.348572 396.082092,635.062073 396.658386,627.809143 
	C397.184418,621.188599 403.929810,616.243286 413.106506,617.330261 
	C405.724976,620.135254 399.216461,622.290405 399.510986,630.686279 
z"/>
<path fill="#000000" opacity="1.000000" stroke="none" 
	d="
M221.480606,607.428467 
	C221.369812,602.612427 222.465195,598.830811 227.247589,597.240967 
	C229.488434,596.495972 231.584030,596.799316 233.173691,598.561218 
	C234.686752,600.238220 233.743256,601.914734 232.774185,603.540894 
	C231.929977,604.957642 231.476852,606.698242 230.383835,607.854065 
	C228.848694,609.477295 230.075119,613.269348 226.847382,613.135559 
	C223.894928,613.013245 222.842331,610.072205 221.480606,607.428467 
z"/>
<path fill="#000000" opacity="1.000000" stroke="none" 
	d="
M229.975739,567.618774 
	C234.848282,559.407043 241.780533,559.687622 247.200272,568.233215 
	C245.712814,568.599670 244.316437,569.291565 242.960938,569.219055 
	C236.040268,568.848816 236.043961,568.779846 236.163345,575.503906 
	C234.547012,575.267578 232.939987,575.419739 232.313934,577.464539 
	C229.175217,574.649780 229.568985,571.321228 229.975739,567.618774 
z"/>
<path fill="#000000" opacity="1.000000" stroke="none" 
	d="
M274.259888,603.474487 
	C271.286652,599.908264 270.546387,596.317139 273.161652,592.743042 
	C275.594055,589.418823 279.163849,588.871216 282.990601,589.862610 
	C284.104919,590.151245 285.288452,590.670349 285.483337,591.987915 
	C285.673309,593.272156 284.783203,594.125488 283.808838,594.807800 
	C278.941223,598.216736 278.381775,599.849182 279.959229,606.681946 
	C277.503784,606.708801 276.055786,605.130554 274.259888,603.474487 
z"/>
<path fill="#000000" opacity="1.000000" stroke="none" 
	d="
M355.177307,635.248291 
	C355.831177,637.500061 358.491150,637.792297 359.621429,639.669739 
	C355.128326,640.331299 351.164398,637.997070 348.761230,633.355225 
	C345.858551,627.748535 346.427979,622.104736 350.291779,618.184570 
	C354.460785,613.954712 361.376648,612.265137 366.129517,614.553833 
	C364.104919,615.295044 362.314423,615.950562 360.268677,616.802368 
	C360.013397,616.998596 360.040497,616.977661 359.675476,617.026978 
	C350.924896,619.868530 348.587341,624.564453 352.486084,631.352661 
	C353.480988,632.832642 354.329163,634.040466 355.177307,635.248291 
z"/>
<path fill="#000000" opacity="1.000000" stroke="none" 
	d="
M317.910553,660.629883 
	C322.210876,658.915039 326.105377,658.176331 330.095337,661.454224 
	C327.678314,662.870117 325.801208,664.150330 323.239136,664.588135 
	C319.017151,665.309692 317.990173,667.794189 319.424591,671.784180 
	C320.060608,673.553345 320.238556,675.487244 320.705658,677.737366 
	C315.913544,677.215942 314.094116,673.906494 313.057983,670.547180 
	C311.753632,666.318542 314.357269,663.286194 317.910553,660.629883 
z"/>
<path fill="#000000" opacity="1.000000" stroke="none" 
	d="
M257.057861,637.784180 
	C255.434189,640.130188 256.388855,642.656860 256.000793,645.028748 
	C250.932541,642.562317 247.891602,636.044189 250.075607,632.328735 
	C252.680145,627.897949 258.472778,627.069336 263.737427,630.692505 
	C260.537048,632.186279 260.093231,635.925049 257.057861,637.784180 
z"/>
<path fill="#000000" opacity="1.000000" stroke="none" 
	d="
M250.484619,583.139893 
	C255.552597,580.982971 260.021088,580.858643 264.798676,585.094910 
	C261.308990,585.253784 258.956360,586.534302 256.596588,587.730713 
	C253.712479,589.192993 252.580322,591.538147 254.252518,594.986755 
	C251.099091,593.970459 251.333878,595.733704 251.535034,597.436646 
	C245.765625,594.164124 245.240097,588.500122 250.484619,583.139893 
z"/>
<path fill="#000000" opacity="1.000000" stroke="none" 
	d="
M209.113617,518.541260 
	C213.420685,517.508972 217.379089,516.564209 221.452255,521.142517 
	C218.322495,520.682495 216.423874,520.403381 214.024429,520.050659 
	C215.771454,521.664734 215.840240,522.606750 213.760849,523.406372 
	C208.869339,525.287415 206.918991,528.526917 209.852005,533.612671 
	C208.373932,534.108887 207.100159,534.536560 205.866470,534.950745 
	C201.385437,528.026123 202.205856,523.577087 209.113617,518.541260 
z"/>
<path fill="#000000" opacity="1.000000" stroke="none" 
	d="
M255.456543,620.245850 
	C252.278793,616.490784 251.585342,612.906616 254.969421,609.314331 
	C257.906525,606.196472 261.919128,606.038574 266.910034,608.891663 
	C265.261932,610.921814 262.105682,610.661377 261.053101,614.117126 
	C260.108582,617.218018 259.618835,619.862549 260.572266,622.926636 
	C258.131775,623.293274 257.117065,621.532043 255.456543,620.245850 
z"/>
<path fill="#000000" opacity="1.000000" stroke="none" 
	d="
M208.384827,547.314209 
	C207.022751,549.085815 205.089020,550.140198 204.689957,552.550659 
	C201.472733,550.226501 204.028534,547.822327 203.949905,545.075867 
	C201.032944,548.765747 202.898987,552.629639 202.622604,556.415344 
	C198.684372,552.387756 199.049744,544.977234 203.082626,541.212646 
	C207.141983,537.423340 212.804550,537.893799 216.669876,542.743347 
	C213.174530,542.759399 210.266144,543.986938 207.645355,545.664551 
	C205.505600,547.034180 208.332932,546.487976 208.384827,547.314209 
z"/>
<path fill="#000000" opacity="1.000000" stroke="none" 
	d="
M416.117645,645.917542 
	C413.561584,647.374512 410.778503,647.376465 408.555603,649.087463 
	C405.224579,651.651123 402.554443,654.468811 403.292542,659.070740 
	C404.004425,663.509216 406.557190,666.599670 410.597412,668.505981 
	C411.751953,669.050598 413.284760,668.778259 414.288849,670.433105 
	C412.773438,671.771423 410.972931,671.521118 409.323181,671.117554 
	C403.743683,669.752625 398.648560,660.769714 400.151917,655.134399 
	C401.797302,648.966614 410.113892,643.498047 415.848206,644.849426 
	C416.054016,644.897949 416.159027,645.374329 416.117645,645.917542 
z"/>
<path fill="#000000" opacity="1.000000" stroke="none" 
	d="
M430.237244,736.342651 
	C428.038666,736.211670 426.178070,736.579773 424.282288,735.039246 
	C426.240814,732.957825 428.518250,733.971008 430.730133,733.512817 
	C429.702271,732.742493 428.215271,732.925720 427.706329,731.710693 
	C430.691498,726.640869 430.997437,726.626526 439.194427,731.160278 
	C439.924255,732.416260 437.822235,732.435913 438.142914,733.496460 
	C440.712250,734.146423 443.470612,732.872742 446.714081,734.849915 
	C441.106720,737.445068 435.784180,735.933838 430.237244,736.342651 
z"/>
<path fill="#000000" opacity="1.000000" stroke="none" 
	d="
M246.227905,619.792358 
	C247.086838,620.257385 248.032486,620.984070 248.014771,621.008362 
	C245.719955,624.155762 246.381256,628.233337 244.691422,631.524841 
	C243.988480,632.894043 243.014618,631.713196 242.133392,631.376465 
	C241.559631,632.804810 244.171875,633.701965 242.541306,635.519653 
	C239.327744,632.629456 236.960327,629.331360 238.054184,624.891968 
	C238.986298,621.108887 241.696640,619.083435 246.227905,619.792358 
z"/>
<path fill="#000000" opacity="1.000000" stroke="none" 
	d="
M308.179504,653.489502 
	C300.734924,656.674561 299.836426,659.069336 303.830841,664.308655 
	C300.398254,664.333191 298.944946,663.423218 297.614899,660.528015 
	C296.192017,657.430664 296.764526,654.519409 299.096771,652.321838 
	C302.417328,649.193054 306.430542,648.280701 310.851807,649.696594 
	C311.129059,651.929993 309.793640,652.628601 308.179504,653.489502 
z"/>
<path fill="#000000" opacity="1.000000" stroke="none" 
	d="
M416.308197,712.981262 
	C415.392212,712.684570 414.826569,712.422791 414.103088,712.054077 
	C408.450623,706.950745 403.243073,701.856873 404.611908,693.360596 
	C405.768341,686.182495 412.723785,679.271851 420.472900,678.955139 
	C413.806671,683.505676 406.248657,687.042358 406.635284,695.307007 
	C406.995178,703.000793 411.475861,708.926208 419.228027,711.063293 
	C419.105194,713.626038 417.713257,712.996704 416.308197,712.981262 
z"/>
<path fill="#000000" opacity="1.000000" stroke="none" 
	d="
M219.254089,554.465454 
	C216.636185,546.898132 221.918152,541.780396 231.421707,543.250916 
	C228.192932,548.246643 225.516357,553.075378 219.254089,554.465454 
z"/>
<path fill="#000000" opacity="1.000000" stroke="none" 
	d="
M298.576721,599.162964 
	C299.729492,598.907654 301.261536,598.010437 300.693695,600.285706 
	C300.226929,602.155884 299.315399,603.917419 299.558807,605.972656 
	C294.102264,604.654846 291.669586,601.847839 292.482727,598.045837 
	C293.355896,593.963318 296.227417,592.437012 301.259766,593.420044 
	C302.872833,596.537048 299.073792,596.989624 298.576721,599.162964 
z"/>
<path fill="#000000" opacity="1.000000" stroke="none" 
	d="
M193.754791,516.402222 
	C196.584396,509.799713 198.964050,508.789520 204.358170,511.649048 
	C203.984741,515.539795 196.298019,515.528503 199.478973,520.665955 
	C198.077301,522.421448 197.553558,520.260498 196.674530,520.723572 
	C195.795700,522.100159 197.749557,523.578369 196.219818,525.190796 
	C193.472351,522.905151 193.655151,519.838745 193.754791,516.402222 
z"/>
<path fill="#000000" opacity="1.000000" stroke="none" 
	d="
M443.989960,745.020264 
	C445.180115,744.743835 446.387299,743.945435 447.971008,745.118164 
	C445.619507,748.657471 440.469971,749.160889 439.214294,753.473633 
	C442.204956,756.220825 445.920715,758.228333 447.524506,762.676392 
	C443.046082,763.355286 440.241211,761.497803 438.266510,758.139282 
	C436.334412,754.853333 436.827942,751.771729 439.528229,749.109741 
	C440.820679,747.835693 442.248657,746.699097 443.830017,745.238281 
	C444.044800,744.976257 444.006744,745.003845 443.989960,745.020264 
z"/>
<path fill="#000000" opacity="1.000000" stroke="none" 
	d="
M458.317383,606.333740 
	C452.860931,613.854126 450.661041,622.260315 449.333313,632.194702 
	C445.445953,622.706055 455.573395,601.189575 464.649200,598.610352 
	C462.297668,601.453552 460.404633,603.742371 458.317383,606.333740 
z"/>
<path fill="#000000" opacity="1.000000" stroke="none" 
	d="
M387.065857,645.192688 
	C382.636200,652.155640 382.885773,653.478516 390.366364,664.178955 
	C385.762665,663.701904 381.804504,658.324219 381.728241,652.443115 
	C381.650085,646.411682 387.082397,639.674744 392.788849,639.117859 
	C391.542755,641.798401 388.758514,642.760986 387.065857,645.192688 
z"/>
<path fill="#000000" opacity="1.000000" stroke="none" 
	d="
M613.971802,632.933350 
	C615.057251,634.560120 613.867065,634.547424 613.154480,634.278076 
	C604.552246,631.026978 596.663635,626.398621 588.966614,621.322937 
	C597.636536,624.289001 605.907959,628.075195 613.971802,632.933350 
z"/>
<path fill="#000000" opacity="1.000000" stroke="none" 
	d="
M240.192902,607.427368 
	C236.457840,600.984314 237.618347,597.978210 243.769577,597.230042 
	C246.674561,601.314636 242.997879,605.353455 244.075760,609.390076 
	C242.147385,609.723389 241.386658,608.520630 240.192902,607.427368 
z"/>
<path fill="#000000" opacity="1.000000" stroke="none" 
	d="
M509.642059,596.954407 
	C510.026794,598.060913 509.320618,598.258606 508.706573,598.403625 
	C499.580566,600.558533 491.158142,604.312561 483.165863,609.120850 
	C490.412842,601.919312 498.935852,597.349854 509.642059,596.954407 
z"/>
<path fill="#000000" opacity="1.000000" stroke="none" 
	d="
M469.617981,759.657349 
	C474.787140,754.304382 479.034546,748.494690 484.985107,744.469849 
	C485.312134,744.771118 485.639160,745.072449 485.966187,745.373779 
	C479.661255,752.211609 473.356323,759.049377 466.509125,766.475342 
	C465.849945,762.868164 468.192596,761.671204 469.617981,759.657349 
z"/>
<path fill="#000000" opacity="1.000000" stroke="none" 
	d="
M536.842285,664.031555 
	C543.533936,665.635498 549.327881,662.317322 556.209106,661.527893 
	C549.847839,667.491760 535.254700,668.072754 528.627930,663.025208 
	C531.580811,662.134216 533.920105,664.119324 536.842285,664.031555 
z"/>
<path fill="#000000" opacity="1.000000" stroke="none" 
	d="
M355.485901,635.146851 
	C354.329163,634.040466 353.480988,632.832642 352.355408,630.937378 
	C350.772888,623.450562 355.128204,620.047058 360.040497,616.977661 
	C360.040497,616.977661 360.013397,616.998596 360.001038,617.010681 
	C361.395447,617.010864 362.932007,616.480225 364.071564,617.850708 
	C363.485046,619.929688 361.586731,619.471680 360.374115,620.051575 
	C354.741638,622.744873 353.330078,626.351196 355.948059,632.066284 
	C356.430786,633.120056 357.269501,634.122681 355.485901,635.146851 
z"/>
<path fill="#000000" opacity="1.000000" stroke="none" 
	d="
M405.969299,657.005249 
	C408.043274,652.408508 411.417053,649.929260 415.940216,648.813110 
	C414.422607,652.315674 410.459259,653.423950 408.552917,656.575073 
	C405.752777,661.203674 410.818848,663.158081 411.813995,666.520508 
	C407.087372,666.475708 405.389160,663.803284 405.969299,657.005249 
z"/>
<path fill="#000000" opacity="1.000000" stroke="none" 
	d="
M442.190735,691.816162 
	C445.395081,694.631592 448.351593,697.194824 451.543976,699.962646 
	C446.205811,700.040100 434.628571,689.178345 433.198975,682.079773 
	C436.113617,685.241211 439.028259,688.402588 442.190735,691.816162 
z"/>
<path fill="#000000" opacity="1.000000" stroke="none" 
	d="
M408.002075,730.468018 
	C412.915344,728.261108 417.213928,729.882507 420.659485,735.262024 
	C417.371063,736.013916 414.278748,736.223633 412.248535,733.257690 
	C411.133698,731.629089 409.374023,731.771790 408.002075,730.468018 
z"/>
<path fill="#000000" opacity="1.000000" stroke="none" 
	d="
M201.152863,475.834930 
	C201.638016,478.654907 202.068558,481.058350 202.499100,483.461792 
	C197.829468,477.468597 198.313248,470.612274 199.507935,463.628357 
	C200.038040,467.558380 200.568146,471.488403 201.152863,475.834930 
z"/>
<path fill="#000000" opacity="1.000000" stroke="none" 
	d="
M409.033142,695.536621 
	C410.065552,692.681091 410.856323,690.104431 414.321716,688.939331 
	C413.898468,692.361877 410.876495,694.394958 411.133789,697.758789 
	C411.381592,700.999023 413.889130,702.997803 414.723694,705.900879 
	C410.569824,705.167419 408.732849,701.937805 409.033142,695.536621 
z"/>
<path fill="#000000" opacity="1.000000" stroke="none" 
	d="
M629.249512,642.295776 
	C636.763062,645.340698 639.542114,651.305298 640.603516,658.501038 
	C638.826538,650.722168 632.605957,646.717834 626.696960,642.617676 
	C627.580994,641.129028 628.293518,641.911743 629.249512,642.295776 
z"/>
<path fill="#000000" opacity="1.000000" stroke="none" 
	d="
M504.988220,755.032837 
	C505.414368,754.568176 505.820557,754.047241 506.299652,753.605164 
	C507.544342,752.456726 508.022278,749.309814 510.617737,751.395081 
	C512.819397,753.164001 510.715576,754.973083 509.939148,756.614441 
	C509.028259,758.540161 506.178284,758.370361 505.622192,760.821472 
	C503.445892,759.113037 504.891937,757.322083 504.966187,755.328613 
	C505.033539,754.976135 505.001465,755.012512 504.988220,755.032837 
z"/>
<path fill="#000000" opacity="1.000000" stroke="none" 
	d="
M476.198090,762.627319 
	C473.872192,763.483276 474.029968,762.094788 474.632904,761.022461 
	C477.122406,756.594482 479.988159,752.455139 484.192566,749.542847 
	C484.552002,749.810547 484.911438,750.078308 485.270874,750.346008 
	C482.315399,754.363037 479.359924,758.380127 476.198090,762.627319 
z"/>
<path fill="#000000" opacity="1.000000" stroke="none" 
	d="
M505.718018,672.278259 
	C500.234680,671.542480 495.576050,669.858582 491.896851,665.797913 
	C497.387756,667.182129 502.308746,670.467224 508.012085,669.995239 
	C508.230103,672.328003 507.025543,672.112488 505.718018,672.278259 
z"/>
<path fill="#000000" opacity="1.000000" stroke="none" 
	d="
M438.679749,702.308838 
	C440.755219,704.038147 443.522461,704.287964 445.454681,707.824951 
	C439.004120,705.722717 434.494507,703.064026 431.356293,698.269714 
	C434.310822,698.472473 436.022766,700.881897 438.679749,702.308838 
z"/>
<path fill="#000000" opacity="1.000000" stroke="none" 
	d="
M210.235657,374.120728 
	C207.955704,374.544403 207.612396,377.064423 204.871048,377.632507 
	C206.005051,373.287231 208.058685,370.132721 211.691895,366.157593 
	C211.388992,369.743256 211.709869,371.927643 210.235657,374.120728 
z"/>
<path fill="#000000" opacity="1.000000" stroke="none" 
	d="
M436.556274,713.362427 
	C438.454285,714.227173 440.338776,714.498230 441.791077,717.387390 
	C437.006622,716.526672 433.619843,714.900269 429.902710,712.360840 
	C432.722443,710.852661 434.346039,712.914612 436.556274,713.362427 
z"/>
<path fill="#000000" opacity="1.000000" stroke="none" 
	d="
M467.554382,661.389221 
	C468.610687,663.211182 470.186768,664.368652 470.378479,666.431030 
	C466.429626,665.042847 463.918854,661.385498 463.438080,656.326111 
	C465.986481,657.029297 466.216766,659.462585 467.554382,661.389221 
z"/>
<path fill="#000000" opacity="1.000000" stroke="none" 
	d="
M387.606445,650.950439 
	C388.477509,648.535156 389.404510,646.629395 392.475830,645.923584 
	C391.110565,649.694641 388.620422,652.665466 388.942078,656.909485 
	C386.185577,655.114014 387.017426,653.188416 387.606445,650.950439 
z"/>
<path fill="#000000" opacity="1.000000" stroke="none" 
	d="
M412.729248,657.674255 
	C412.000122,659.283630 412.966644,660.941162 411.723846,662.140320 
	C408.329834,658.928772 408.872101,656.730469 413.726593,654.072632 
	C415.023102,655.595703 413.157867,656.296326 412.729248,657.674255 
z"/>
<path fill="#000000" opacity="1.000000" stroke="none" 
	d="
M542.827637,669.912354 
	C539.483459,672.248291 536.554565,670.398376 533.543762,668.981567 
	C536.677063,668.287537 539.786438,668.121887 542.827637,669.912354 
z"/>
<path fill="#000000" opacity="1.000000" stroke="none" 
	d="
M355.898376,657.528809 
	C356.602905,656.716003 356.968658,655.836975 358.363434,656.298218 
	C357.597839,658.681030 357.605621,661.189636 358.139923,664.460999 
	C354.775116,662.468384 354.980988,660.227417 355.898376,657.528809 
z"/>
<path fill="#000000" opacity="1.000000" stroke="none" 
	d="
M258.369690,683.573486 
	C260.707397,685.231384 263.830658,685.012024 264.793335,688.172302 
	C251.235229,683.765381 238.764008,677.482178 228.846771,666.722290 
	C238.374298,672.653503 247.738464,678.870056 258.369690,683.573486 
z"/>
<path fill="#000000" opacity="1.000000" stroke="none" 
	d="
M219.604065,659.484253 
	C218.619690,658.240417 217.221054,657.572266 217.867065,655.122009 
	C221.609497,657.487732 224.438538,660.262756 227.598709,664.509155 
	C223.456360,663.872986 221.921097,661.361511 219.604065,659.484253 
z"/>
<path fill="#000000" opacity="1.000000" stroke="none" 
	d="
M193.001999,638.996338 
	C192.297318,640.032532 191.365860,640.963684 190.186340,639.914001 
	C184.434753,634.795532 179.731552,628.866882 176.538651,621.781189 
	C182.425934,626.939087 186.280899,633.914612 192.728149,638.909180 
	C193.035599,639.045410 193.012421,639.012878 193.001999,638.996338 
z"/>
<path fill="#000000" opacity="1.000000" stroke="none" 
	d="
M228.032455,319.981049 
	C219.397079,325.851685 214.105286,334.531433 208.628403,343.058807 
	C207.504776,344.808319 206.967865,347.028839 204.247803,348.350708 
	C205.344681,343.224640 208.090866,339.528137 210.632492,335.774536 
	C216.257126,327.467712 223.249649,320.288300 229.861877,312.801025 
	C235.745651,306.138611 240.805069,298.977631 244.221481,290.704285 
	C244.868225,289.138123 245.197540,287.081543 247.413513,286.522644 
	C248.699860,288.364563 247.204376,289.686768 246.573486,291.067291 
	C242.599670,299.762787 237.309998,307.612030 231.080002,314.845367 
	C229.898666,316.216980 228.359680,317.358063 228.026199,319.662537 
	C228.004303,320.001892 228.032455,319.981049 228.032455,319.981049 
z"/>
<path fill="#000000" opacity="1.000000" stroke="none" 
	d="
M227.993683,320.015686 
	C230.272766,318.529602 231.031021,315.386261 234.165817,314.716614 
	C229.924240,322.498352 224.240433,329.004913 217.576889,334.660828 
	C217.168335,334.321594 216.759781,333.982391 216.351212,333.643158 
	C220.119720,329.274994 223.888229,324.906830 227.844604,320.259827 
	C228.032455,319.981049 228.004303,320.001892 227.993683,320.015686 
z"/>
<path fill="#000000" opacity="1.000000" stroke="none" 
	d="
M197.338989,360.487122 
	C198.340469,359.046753 198.386795,357.315125 200.046494,356.775085 
	C200.846863,360.464996 199.032028,364.740326 195.527237,367.126434 
	C194.395416,364.494598 196.611084,362.839752 197.338989,360.487122 
z"/>
<path fill="#000000" opacity="1.000000" stroke="none" 
	d="
M187.090576,589.588867 
	C187.436417,590.460205 187.622894,591.051208 187.872604,591.842651 
	C183.286819,589.716492 170.286789,567.898132 169.284332,559.928772 
	C175.587631,570.422974 181.259445,579.865784 187.090576,589.588867 
z"/>
<path fill="#000000" opacity="1.000000" stroke="none" 
	d="
M195.408813,579.466064 
	C194.248749,576.651062 192.153214,574.487183 192.883179,570.110657 
	C196.731766,576.969971 199.973221,582.747192 203.476974,588.991943 
	C199.581299,587.593079 199.581299,587.593079 195.408813,579.466064 
z"/>
<path fill="#000000" opacity="1.000000" stroke="none" 
	d="
M532.874268,629.977417 
	C541.094421,625.239319 549.038696,626.239258 553.312622,632.236755 
	C554.710876,634.198853 555.718750,636.336121 555.055115,638.756958 
	C553.774170,643.429443 549.961121,645.159119 545.729980,645.900940 
	C540.419006,646.832214 535.739075,645.263367 532.583008,640.765320 
	C530.247314,637.436523 529.502930,633.751160 532.874268,629.977417 
z"/>
<path fill="#000000" opacity="1.000000" stroke="none" 
	d="
M547.012817,655.839294 
	C538.402954,658.591553 529.775024,655.734558 527.320435,649.394897 
	C529.649841,649.407349 530.732910,651.350159 532.353516,652.234192 
	C536.096497,654.275757 540.042053,655.032837 544.287170,654.680481 
	C545.253784,654.600220 546.957581,653.208801 547.012817,655.839294 
z"/>
</svg>